<svg width="147" height="147" viewBox="0 0 147 147" fill="none" xmlns="http://www.w3.org/2000/svg">
<path d="M67.5102 1.05745C122.555 -2.42927 162.528 52.0473 140.423 103.183C116.391 158.781 37.8474 162.181 8.87955 108.925C-16.1751 62.8628 15.0554 4.38227 67.5102 1.05745ZM23.3793 123.069C64.6276 164.665 135.981 140.191 142.812 82.2116C148.822 31.1664 99.0288 -9.04338 50.2779 7.93217C1.99298 24.7419 -12.8621 86.5196 23.3793 123.069Z" fill="#03403F"/>
<path d="M68.9867 30.8065C98.535 28.5557 121.832 53.8631 115.704 83.1468C108.016 119.874 59.4229 129.714 37.7404 99.0128C18.7866 72.1773 36.1689 33.3061 68.9906 30.8065H68.9867ZM70.7083 32.5282C38.3643 34.6289 20.5912 71.2335 39.312 97.9308C56.4139 122.318 93.4964 120.924 108.841 95.4708C126.069 66.8978 103.882 30.3761 70.7044 32.5282H70.7083Z" fill="#03403F"/>
<path d="M47.0915 32.4146C47.052 32.4778 45.978 33.2794 45.9069 33.3189C45.0579 33.7888 44.9553 32.7424 44.4261 32.0948C42.5031 29.7334 40.5564 27.3563 38.5307 25.0818L43.8378 34.6575C43.9168 35.1432 42.3768 36.237 41.899 36.1185L33.6106 28.7699C33.504 29.228 33.8673 29.3544 34.1002 29.6308C36.3155 32.2448 38.7044 34.7207 40.7301 37.5006L38.9256 38.8392L30.1831 28.1895L33.2039 25.8439L40.2484 31.9645L35.8179 23.7235C35.814 23.3405 38.1714 21.3463 38.6176 21.4293C39.2533 21.5477 45.7608 30.2665 46.902 31.3406C47.135 31.617 47.2811 32.0987 47.0955 32.4107L47.0915 32.4146Z" fill="#03403F"/>
<path d="M133.466 59.7754C133.707 60.7113 133.861 61.6906 133.699 62.658L125.13 67.3649L134.477 65.892L134.725 68.1033L120.814 69.8368C120.802 69.0352 120.265 67.6215 120.81 67.1161L129.56 62.4527L120.107 63.6926L119.728 61.4694L133.474 59.7715L133.466 59.7754Z" fill="#03403F"/>
<path d="M62.3929 11.5576L65.7927 24.9675C65.7335 25.2755 63.3998 25.927 63.0049 25.5993L57.2319 17.2161L59.6327 26.4482C59.5577 26.8629 58.0335 27.1669 57.6347 27.0287C56.9594 26.7957 54.6218 15.4195 54.0571 13.915C54.1677 13.4846 56.4027 13.1095 56.9436 13.066L62.3929 21.1451L60.1776 12.1776L62.3929 11.5576Z" fill="#03403F"/>
<path d="M52.5478 131.291C52.3149 131.492 50.1865 130.505 50.1075 130.158C50.7946 127.717 53.6772 124.74 49.7442 123.686C49.1519 123.82 47.7659 128.511 47.3592 128.811C46.988 129.084 45.4441 128.116 44.9229 128.089L50.5853 115.307C53.8193 116.641 58.8974 117.952 56.4373 122.509C55.6792 123.911 53.7956 124.353 53.7877 124.523C53.7877 124.574 54.1787 125.001 54.226 125.313C54.538 127.508 52.7611 129.143 52.5518 131.283L52.5478 131.291ZM50.5853 121.944C51.5843 122.043 52.4926 122.825 53.539 122.316C54.226 121.98 54.7631 120.219 54.3998 119.484C54.23 119.137 52.457 118.067 52.0463 118.363C51.8884 118.477 50.4392 121.779 50.5853 121.944Z" fill="#03403F"/>
<path d="M123.408 51.1399C123.25 53.6908 119.763 54.1172 118.117 55.5625C115.495 52.36 118.543 52.7549 120.537 51.3452C122.346 50.0698 121.564 49.6907 120.944 47.9454C120.103 47.973 115.972 50.4331 115.688 50.3857C115.242 50.3107 114.369 48.2376 114.567 47.9651L126.938 42.3105C127.218 42.3935 129.011 46.2158 129.145 46.7608C130.065 50.512 126.634 52.5812 123.412 51.1399H123.408ZM125.801 45.5209C125.501 45.5643 122.713 46.8871 122.697 47.0806C123.641 51.1399 128.735 48.901 126.579 45.8841C126.322 45.5248 126.259 45.4577 125.801 45.5248V45.5209Z" fill="#03403F"/>
<path d="M31.1427 50.1556L19.4466 42.7794C19.2294 42.5227 19.4426 42.3411 19.5295 42.116C19.7901 41.4368 21.9619 38.42 22.5582 38.0015C25.4802 35.9402 31.0558 39.2137 32.8327 41.7133C35.2809 45.1644 32.6511 47.123 31.1466 50.1517L31.1427 50.1556ZM24.6273 39.7034C23.8296 39.727 22.187 41.0617 22.6529 41.8041C23.2058 42.6846 29.1091 45.3974 30.1752 46.5939C31.0005 47.1704 31.6284 45.4645 31.6165 44.8683C31.581 42.9808 26.3884 39.6481 24.6273 39.7034Z" fill="#03403F"/>
<path d="M133.655 79.8227C132.897 80.5769 131.353 80.9994 130.295 80.8928C130.385 80.3281 130.105 79.0803 130.405 78.6657C130.713 78.2314 132.368 78.6341 132.51 77.0586C132.759 74.3458 126.283 74.3261 124.502 74.4919C121.951 74.7249 121.599 77.3034 123.882 77.8404C124.253 77.9273 126.014 78.0458 126.113 77.9471C126.212 77.8483 126.01 76.3241 126.113 76.2254C126.2 76.1346 127.941 76.2886 128.328 76.2254L128.083 80.6519L120.21 80.1583C120.221 79.1751 119.874 78.0971 121.197 78.1879C121.141 77.5245 120.593 77.3113 120.474 76.5808C119.621 71.3369 125.588 71.5067 129.153 72.0832C132.391 72.6084 135.459 74.0773 134.618 77.9589C134.512 78.4564 134.014 79.4752 133.659 79.8267L133.655 79.8227Z" fill="#03403F"/>
<path d="M25.7093 73.007C25.6185 73.1057 24.7261 72.8372 25.0025 73.386C25.117 73.6151 25.5474 73.8362 25.7014 74.1639C27.4823 77.8955 24.6985 79.55 21.4013 80.1226C17.6895 80.7662 11.6835 80.7583 11.6953 75.6013C11.6993 73.7967 13.1603 72.2133 14.9017 71.8895C15.9126 71.7039 15.8178 73.5203 15.6164 74.0968C15.4624 74.5312 14.5226 74.5391 14.1554 75.0919C11.9165 78.4759 21.4684 78.1916 23.2572 76.8135C25.9107 74.7681 22.0647 73.3979 20.0745 74.006C19.9008 74.468 20.426 75.4473 20.2167 75.7355C19.9718 76.0672 18.1791 76.0514 18.1041 75.9764C17.9501 75.8145 17.8277 72.1106 17.8593 71.5499L25.3461 71.0879C25.8554 71.1945 25.8396 72.8648 25.7054 73.0109L25.7093 73.007Z" fill="#03403F"/>
<path d="M13.2745 66.791C11.1067 64.4454 12.3308 60.3151 15.5845 59.8057C18.5027 59.3516 25.409 59.9715 26.404 63.3832C27.0635 65.6458 26.0921 67.9953 23.7742 68.7258C21.3023 69.5077 15.1028 68.7653 13.2745 66.787V66.791ZM14.7316 62.7593C14.2499 63.2687 14.3447 64.3665 14.7988 64.8995C16.1137 66.4514 25.9184 67.6241 24.331 64.2361C23.5412 62.55 15.9241 61.4918 14.7316 62.7593Z" fill="#03403F"/>
<path d="M18.2893 47.9993C20.9862 47.4425 27.5214 49.8038 28.9034 52.2797C29.9972 54.2422 28.8679 57.3893 26.7198 58.1435C23.8333 59.1584 16.5005 56.5956 15.3948 53.488C14.6446 51.3833 16.0266 48.4652 18.2893 47.9993ZM18.5341 50.4554C16.0464 51.0082 17.9536 53.3538 19.4186 54.1356C20.7375 54.8385 28.0544 57.5236 27.1107 54.0803C26.6132 52.256 20.236 50.0724 18.5341 50.4514V50.4554Z" fill="#03403F"/>
<path d="M112.652 42.4591C113.181 42.8856 114.129 42.8896 114.725 42.5855L122.835 36.4137C123.582 36.2083 124.17 37.7286 124.624 38.2301C122.002 40.0228 119.503 42.5302 116.841 44.2045C115.092 45.3062 113.595 45.8945 111.724 44.4927C110.338 43.4582 109.22 41.2982 109.745 39.5647C110.464 37.1837 117.082 33.7601 118.851 31.6949C119.752 31.0355 120.265 32.8756 120.936 33.306L112.581 39.9438C111.89 40.5796 111.953 41.8866 112.652 42.4513V42.4591Z" fill="#03403F"/>
<path d="M69.5281 10.8185C69.8637 13.8748 69.3978 17.7682 69.8361 20.714C70.2309 23.3517 72.5844 23.8295 73.4492 21.255C73.6387 19.9519 72.845 11.1857 73.2162 10.8185C73.307 10.7316 75.5301 10.5895 75.6407 10.9764C75.8895 11.8452 75.6131 13.8195 75.6644 14.8857C75.771 17.0614 76.4897 21.3339 75.3919 23.1977C73.9664 25.6183 69.0029 25.8592 67.8262 22.9648C66.9772 19.174 67.1194 15.1226 67.0996 11.2213C67.3326 10.5144 68.8923 10.9093 69.5281 10.8185Z" fill="#03403F"/>
<path d="M64.5759 120.261L64.8524 134.488C64.7457 134.595 62.2659 134.094 62.1791 133.963C61.8118 133.395 62.4555 131.077 62.3607 130.694C62.2344 130.184 59.1859 129.651 58.9727 129.837C58.9016 130.279 58.0921 132.621 57.9263 132.719C57.4406 133.02 56.1138 132.554 55.5176 132.506L61.4249 119.491L64.5759 120.257V120.261ZM62.3923 128.095V123.547C62.3923 123.357 62.8148 122.84 62.6371 122.441C61.4999 123.783 61.0971 125.88 60.181 127.472C60.2718 127.89 61.9421 128.111 62.3923 128.095Z" fill="#03403F"/>
<path d="M95.0808 14.7865C95.4718 15.3867 93.4737 27.2408 93.6356 29.0138C93.2644 28.9269 91.2782 28.3504 91.2111 28.2438C90.9347 27.8173 91.602 25.2743 91.6691 24.5952C91.0018 24.5952 89.0511 23.5329 88.6168 23.6356C88.1469 23.7462 87.2031 26.3681 86.9702 26.5379C86.7846 26.6761 84.8221 26.0483 84.6444 25.8272C84.21 25.2743 91.4125 15.2801 91.9495 13.8033C92.1627 13.6769 94.9861 14.6483 95.0769 14.7865H95.0808ZM91.914 22.376L92.6524 16.7214L89.9554 21.2822C89.6553 22.1351 91.2071 22.068 91.914 22.376Z" fill="#03403F"/>
<path d="M48.0784 16.5213L56.734 27.5342C56.122 27.4869 54.8386 28.6004 54.4201 28.5017C54.1713 28.4425 52.7458 26.2865 52.5089 25.8521C51.9521 25.5283 50.1041 27.0407 49.3538 27.0565L50.3371 30.7327L48.0034 31.4751L44.9194 18.0692C44.9905 17.4413 47.5572 16.2133 48.0784 16.5173V16.5213ZM50.8307 24.0949C50.9412 23.7158 50.7043 23.6803 50.5858 23.4829C49.7843 22.1758 48.339 20.6832 47.3913 19.4275C47.8573 20.6082 48.1534 23.6961 48.7418 24.5885C49.1683 25.2321 50.2186 24.0278 50.8307 24.0949Z" fill="#03403F"/>
<path d="M103.933 109.936C104.064 110.011 104.854 111.531 104.676 111.835C104.577 112.001 101.876 113.462 101.493 113.952C101.051 114.512 102.848 116.696 103.144 116.755C103.673 116.862 105.983 114.757 106.575 114.339C109.809 116.534 105.762 117.059 104.467 118.876C105.177 119.251 106.299 121.541 106.844 121.683C107.554 121.869 109.892 119.338 110.765 119.022C111.215 118.86 111.057 119.132 111.16 119.31C111.298 119.555 111.791 120.479 111.807 120.641C111.87 121.296 106.97 124.277 106.311 125.134L97.8287 114.189C97.7379 113.837 98.0499 113.79 98.2276 113.624C98.8554 113.035 102.184 110.556 102.899 110.181C103.179 110.034 103.625 109.75 103.933 109.932V109.936Z" fill="#03403F"/>
<path d="M43.3443 110.153C46.3058 112.159 50.1558 113.853 47.7629 118.023C46.0492 121.004 42.7323 120.519 40.6197 118.272C39.8181 118.765 37.6384 122.762 36.975 122.655C36.6552 122.604 35.1073 121.447 35.356 120.89L43.3443 110.153ZM41.7293 116.779C42.8033 117.06 43.2298 118.106 44.5052 117.719C45.2239 117.502 46.2624 115.812 46.0531 115.054C45.911 114.54 44.6553 113.233 44.0827 113.324C43.8774 113.356 41.9978 116.321 41.7253 116.779H41.7293Z" fill="#03403F"/>
<path d="M106.429 25.0809C106.338 25.1638 104.316 24.1647 104.245 24.066C103.941 23.6514 105.319 21.4954 103.483 20.9979C102.046 20.6069 100.597 22.8024 99.9333 23.8686C99.2185 25.0177 96.3399 29.9101 99.1791 30.0207C100.498 30.072 100.995 28.7097 101.355 28.7848C101.45 28.8045 102.891 29.7838 102.982 29.8785C103.606 30.5498 101.9 31.6515 101.351 31.9161C98.5552 33.2784 95.0408 30.8697 95.4238 27.7186C95.6529 25.8272 97.647 22.3404 98.9263 20.8873C102.875 16.3976 108.557 19.4816 106.429 25.069V25.0809Z" fill="#03403F"/>
<path d="M76.4152 125.141C75.8861 125.031 74.3026 125.319 73.9867 125.11C73.7735 124.968 73.8327 123.258 72.7903 122.97C71.5346 122.618 70.9186 123.574 70.6185 124.636C70.1959 126.129 69.6984 132.668 71.6214 133.015C73.6037 133.375 73.4418 130.982 74.0973 130.836C74.4369 130.761 75.6017 131.27 76.1664 131.041C76.2059 135.728 69.4102 136.905 68.036 132.403C67.1475 129.505 67.2542 122.231 70.6974 121.023C73.8604 119.913 76.3283 121.864 76.4112 125.134L76.4152 125.141Z" fill="#03403F"/>
<path d="M94.8113 115.618C96.1065 115.436 98.6494 116.487 98.7797 117.932C98.8232 118.406 96.9831 119.283 96.7383 119.223C96.3355 119.129 95.5141 116.755 93.9978 118.248C93.1765 119.057 93.5398 120.171 93.8399 121.134C94.2979 122.623 96.6474 127.788 98.5626 127.259C100.336 126.769 99.068 124.937 99.4036 124.408C99.4826 124.286 101.031 123.468 101.185 123.456C101.548 123.421 101.571 123.579 101.702 123.847C103.55 127.693 97.9347 132.112 94.2466 127.61C91.7115 124.519 88.6039 116.487 94.8113 115.618Z" fill="#03403F"/>
<path d="M87.2418 12.3003C87.151 15.8581 84.3474 13.5126 82.073 13.7732L81.5794 17.2125C81.7768 17.41 85.2122 17.489 85.7729 17.8206C86.0888 18.0062 85.7848 19.4791 85.6465 19.6805C85.1964 20.336 81.9861 19.1948 81.0858 19.4238C80.9871 20.1701 80.5409 24.8691 80.3355 25.0666C80.1894 25.2048 78.0847 25.0587 77.9229 24.802L79.9683 11.3013C80.1657 11.0091 80.3671 11.0999 80.6435 11.1197C82.7284 11.2816 85.1253 12.0476 87.2418 12.3003Z" fill="#03403F"/>
<path d="M110.37 23.36C110.583 23.21 111.708 24.1419 111.957 24.3472C113.675 25.7727 115.27 27.4588 116.996 28.8882L115.629 30.4756C115.084 30.5901 113.963 28.442 113.078 28.8764C112.024 29.7333 106.137 37.3661 105.568 37.3622C105.438 37.3622 103.684 35.8933 103.744 35.5616L111.333 27.135C111.448 26.4953 109.501 25.5121 109.398 25.1725C109.185 24.4657 110.362 24.1261 110.374 23.36H110.37Z" fill="#03403F"/>
<path d="M85.2759 121.948C84.7981 122.015 82.4802 122.26 82.342 122.461C82.0143 122.935 84.2137 132.388 84.0637 133.845C83.9728 134.181 82.0024 134.323 81.5997 134.224L79.8622 122.931C79.0962 122.706 77.4969 123.511 76.8928 123.069C76.6243 122.872 76.1662 121.209 77.0468 120.972C77.8168 120.767 84.2651 119.642 84.6323 119.748C85.1891 119.91 85.0193 121.391 85.2799 121.94L85.2759 121.948Z" fill="#03403F"/>
<path d="M92.1619 132.025L89.7255 132.498L85.7847 119.262L88.0986 118.753L92.1619 132.025Z" fill="#03403F"/>
<path d="M131.768 53.1055L132.25 55.5497C130.552 55.6603 119.547 59.8973 118.986 59.4945C118.876 59.4155 118.216 57.1529 118.725 56.916L131.768 53.1094V53.1055Z" fill="#03403F"/>
<path d="M30.6569 102.034C28.8128 103.917 28.1889 103.7 29.4249 106.456C28.5719 106.468 27.9204 105.137 27.103 105.216C26.2856 105.295 25.8829 106.709 24.9983 106.705C24.8996 105.963 25.6736 104.829 25.4643 104.17C25.3221 103.728 24.2283 103.341 23.8453 103.076C23.6281 102.926 23.3912 103.115 23.5255 102.527C24.1652 102.417 25.4998 102.736 25.9934 102.413C26.5739 102.03 26.3251 99.8183 26.8463 99.8262C27.7269 102.227 27.9322 102.748 30.6608 102.037L30.6569 102.034Z" fill="#03403F"/>
<path d="M120.265 102.22C120.676 102.694 122.279 102.485 122.911 102.528C123.045 103.112 122.812 102.927 122.591 103.077C122.196 103.345 121.13 103.713 120.976 104.171C120.696 105 121.513 105.881 121.434 106.706C120.554 106.714 120.115 105.288 119.333 105.221C118.552 105.154 117.28 106.753 117.012 106.461C116.897 105.521 117.955 104.838 117.714 103.938C117.497 103.128 115.997 103.002 116.028 102.038C118.777 102.907 118.619 101.908 119.594 99.8311C120.088 99.8193 119.93 101.833 120.269 102.224L120.265 102.22Z" fill="#03403F"/>
<path d="M126.109 87.2812C126.093 90.1006 126.591 90.1559 129.308 89.99C127.203 91.4906 126.544 91.4432 127.831 94.1638C127.523 94.4679 126.153 92.691 125.493 92.6949C125.023 92.6949 123.397 94.1678 123.16 93.919C123.148 93.2477 124.249 91.9328 124.111 91.3642C124.02 90.9891 121.734 89.9348 122.176 89.4965C122.761 89.6268 124.411 89.9821 124.846 89.7057C124.988 89.6149 125.351 87.9801 125.56 87.5971C125.718 87.3089 125.553 87.1825 126.109 87.2812Z" fill="#03403F"/>
<path d="M21.5939 89.6978C22.1349 90.0256 23.6038 89.5162 24.2593 89.4964C24.7055 89.9071 22.4271 91.0049 22.3126 91.376C22.1231 92.0078 23.5446 93.6426 23.2761 93.919C22.3363 93.994 21.819 92.6712 20.9384 92.7028C20.279 92.7265 18.8812 94.4639 18.6048 94.1678C19.8289 91.3918 19.3076 91.5458 17.1279 89.99C17.6926 89.9584 19.7657 90.1164 20.0381 89.6978C20.2751 89.3306 20.0223 87.7195 20.6976 87.2852C21.0372 87.6682 21.2859 89.5083 21.5979 89.6978H21.5939Z" fill="#03403F"/>
<path d="M70.5109 56.5488L73.8318 76.4662L77.6463 56.5488H85.52V85.1929C85.52 85.2205 85.1765 85.5601 85.1528 85.5601H80.7263L80.4814 60.9714C79.2889 66.9221 78.4597 72.9637 77.2909 78.9262C76.9908 80.4583 76.5367 84.0675 76.0075 85.26C75.8654 85.5759 75.9444 85.5364 75.5732 85.5759C74.2425 85.718 72.6353 85.4495 71.2691 85.5482L67.0755 60.9753C66.8584 62.1837 67.2927 63.4078 67.3282 64.5292C67.4665 68.6398 67.3282 72.7504 67.3085 76.8216C67.2927 79.5659 67.4704 82.33 67.4625 85.0586C67.4625 85.2639 67.3717 85.5601 67.194 85.5601H62.6411V56.5488H70.5149H70.5109Z" fill="#03403F"/>
<path d="M58.4562 64.4184H53.4136C52.8648 64.0749 53.1412 63.3878 52.9832 62.8823C52.2014 60.3354 49.1016 59.4312 47.3839 61.5951C45.3227 64.1933 45.4096 72.0671 45.6504 75.3721C45.8005 77.4097 46.5271 81.007 48.841 81.5242C51.1708 82.0455 52.5094 80.6358 52.9793 78.4995C53.1451 77.7532 53.4966 74.2033 53.1767 73.7492C52.6199 72.9555 49.3465 74.306 49.3465 73.3978V69.0937H58.4483V85.5677H54.6338C54.1205 85.5677 54.2666 83.7632 54.2626 83.3565L51.5577 85.4453C43.7867 87.8777 40.7264 81.8559 40.2446 75.1155C39.7629 68.3869 40.0196 56.7342 48.9674 56.055C54.8312 55.6088 57.9744 58.7125 58.4483 64.4223L58.4562 64.4184Z" fill="#03403F"/>
<path d="M95.1117 73.7613V85.564H89.9468V56.5527H100.648C100.979 56.5527 102.729 57.2714 103.151 57.4925C109.781 60.9556 107.866 73.7652 99.4158 73.7652H95.1117V73.7613ZM95.1117 60.7305V69.2123C95.1117 70.0732 99.6211 69.3545 100.403 68.8451C102.089 67.7434 102.156 63.9526 101.224 62.3653C100.889 61.7966 99.5303 60.7305 98.9262 60.7305H95.1117Z" fill="#03403F"/>
<path d="M62.3926 88.0203C64.051 88.119 66.7441 87.4477 67.3956 89.5366C67.9642 91.3609 66.8151 91.6649 66.823 92.3244C66.827 92.6481 67.2574 92.9443 67.3048 93.3194C67.443 94.4053 67.1271 95.5386 67.5615 96.6245C64.0471 97.2721 67.6128 92.6403 64.1182 92.9364V96.6245H62.3965V88.0203H62.3926ZM65.7885 89.5405C65.7253 89.4852 64.1735 89.1891 64.1142 89.2483V91.7084C65.5989 92.352 66.598 90.2552 65.7885 89.5405Z" fill="#03403F"/>
<path d="M90.1914 96.6243V88.02C93.6821 87.5778 95.6801 88.5649 95.6249 92.3202C95.5696 96.0083 93.6979 97.0744 90.1914 96.6243ZM91.6682 89.8641C91.4589 91.1158 91.6682 93.3863 91.6682 94.7802C91.6682 94.8197 91.9209 95.3804 92.071 95.412C94.4205 95.799 94.8785 88.9361 91.9249 89.256C91.9525 89.4929 91.688 89.7298 91.6643 89.8601L91.6682 89.8641Z" fill="#03403F"/>
<path d="M89.2083 88.0205V89.4973L86.2507 89.6355C85.8518 92.1667 87.3879 91.3651 89.2083 91.4598C89.5794 93.6237 87.6959 92.8064 86.2546 92.9327C85.4175 97.1342 88.7897 94.4688 89.457 95.1479C89.5794 95.2743 89.4452 96.6248 89.0858 96.6248H84.7817V88.0205H89.2083Z" fill="#03403F"/>
<path d="M61.4091 88.0205V89.4973H58.7003V91.4677L61.4131 91.6059V92.9406H58.7003V95.4007L61.654 95.1519V96.6287H57.3459C57.2235 96.6287 56.9352 96.2259 56.9708 96.0167L57.2393 91.3493C57.3893 90.9189 56.647 88.0205 57.3459 88.0205H61.4052H61.4091Z" fill="#03403F"/>
<path d="M74.2425 44.2168C74.6058 44.4617 76.8171 44.4854 77.4015 44.5051C77.0145 45.2435 75.2139 45.6147 74.977 46.3965C74.6966 47.3284 75.6049 48.4775 75.6759 49.4173C75.3758 49.7411 73.6265 47.5772 73.05 47.4903C72.5091 47.4074 71.0875 49.1527 70.2662 48.9237C72.1458 45.8082 71.2336 46.1083 69.0342 44.0115C69.9068 43.7469 71.5811 44.588 72.2445 44.1418C72.6473 43.8733 72.8842 41.7923 73.3383 41.3066C73.9069 41.741 73.8635 43.9641 74.2425 44.2168Z" fill="#03403F"/>
<path d="M55.4353 88.3356C55.7551 88.5963 56.4856 90.0889 56.225 90.4561C54.6337 91.2656 54.7877 89.6782 54.2822 89.3584C52.6712 88.3436 52.4856 92.1264 52.5566 93.0544C52.6198 93.8836 53.0344 96.0554 54.2822 95.2775C54.8627 94.9142 54.3809 93.6625 56.2447 94.164C56.3316 96.9557 52.4026 97.9232 51.3878 95.2025C50.7718 93.5559 50.6849 88.774 52.7857 88.1264C53.453 87.921 54.8864 87.8855 55.4353 88.3317V88.3356Z" fill="#03403F"/>
<path d="M81.0896 88.0205V89.4973C80.4342 89.6039 78.6177 89.2367 78.2387 89.7343C78.1913 89.7974 78.1439 91.2269 78.1636 91.3019C78.5032 92.4905 81.8439 90.4411 81.0896 92.9367L78.369 93.0512C77.7688 93.4224 79.6642 97.4698 76.6592 96.6248V88.0205H81.0857H81.0896Z" fill="#03403F"/>
<path d="M73.216 88.0205C73.8754 90.1054 71.2495 89.3394 71.2495 89.4973V96.6287H69.7727V89.4973C69.7727 89.3552 67.439 90.0383 68.0511 88.0205H73.216Z" fill="#03403F"/>
<path d="M83.5498 88.0205H81.8281V96.6248H83.5498V88.0205Z" fill="#03403F"/>
<path d="M75.4309 88.0205H73.9541V96.6248H75.4309V88.0205Z" fill="#03403F"/>
<path d="M61.6546 45.2431C61.86 46.0408 60.4976 46.0447 60.4147 46.3883C60.2449 47.0635 60.5766 47.8611 60.9202 48.4337C60.1857 48.5837 59.6171 47.4505 59.0801 47.4505C58.5667 47.4505 58.1008 48.3073 57.4769 48.1889C57.469 47.5255 58.1561 47.1464 57.9349 46.3962C57.7493 45.7644 56.6595 45.7841 56.7385 44.9944C58.9853 45.5274 58.4877 45.3655 59.3209 43.5215C59.9922 45.0694 59.5894 45.4761 61.6586 45.2392L61.6546 45.2431Z" fill="#03403F"/>
<path d="M89.7016 44.7498C89.674 45.3815 88.3196 45.6501 88.2445 45.7527C87.9879 46.1002 88.904 47.5297 88.7184 47.6955C87.7431 48.0193 87.9286 46.7044 87.1231 46.7083C86.6177 46.7083 85.5673 47.968 85.2751 47.6915C85.4133 47.0795 86.1596 46.27 86.0293 45.6461C85.9424 45.2354 84.5248 45.2315 84.7815 44.497C85.1922 44.4062 86.5308 44.6352 86.7243 44.4694C86.8546 44.3588 86.8546 43.0084 87.364 42.7754C87.6838 44.4733 87.7746 45.0025 89.7016 44.7419V44.7498Z" fill="#03403F"/>
</svg>
