<svg width="196" height="148" viewBox="0 0 196 148" fill="none" xmlns="http://www.w3.org/2000/svg">
<path d="M54.2693 51.4883L46.032 47.1397L45.5484 50.1009L44.0737 49.3239L44.7318 44.4758L44.8467 44.2578L55.2009 49.7282L54.2693 51.4923V51.4883Z" fill="#03403F"/>
<path d="M59.4344 43.7504C58.6852 44.7058 57.7853 45.1973 56.7309 45.233C55.6804 45.2647 54.4595 44.7375 53.0721 43.6513L51.5697 42.474C50.1862 41.3879 49.3894 40.3374 49.1793 39.3226C48.9692 38.3078 49.2388 37.3207 49.992 36.3614C50.7451 35.4021 51.641 34.9066 52.6796 34.8669C53.7182 34.8313 54.9272 35.3545 56.3107 36.4407L57.8131 37.618C60.469 39.7031 61.0121 41.7486 59.4384 43.7544L59.4344 43.7504ZM52.6717 36.7023C52.1088 36.6468 51.6331 36.8648 51.2525 37.3485C50.8759 37.8281 50.7808 38.3355 50.9671 38.8746C51.1534 39.4137 51.6886 40.0282 52.5726 40.7179L54.5269 42.252C55.4109 42.9457 56.1442 43.3223 56.7309 43.3857C57.3176 43.4492 57.7972 43.2391 58.1738 42.7594C58.5544 42.2758 58.6416 41.7644 58.4394 41.2214C58.2372 40.6783 57.6902 40.0599 56.7983 39.3582L54.844 37.8241C53.96 37.1304 53.2385 36.7578 52.6717 36.7023Z" fill="#03403F"/>
<path d="M65.4714 37.3448C64.5637 38.1495 63.5885 38.4746 62.5459 38.316C61.5034 38.1614 60.4014 37.4201 59.232 36.1001L57.9674 34.673C56.802 33.3569 56.2074 32.1796 56.1796 31.141C56.1558 30.1024 56.5958 29.1828 57.5116 28.3741C58.4233 27.5654 59.3945 27.2364 60.4212 27.387C61.4479 27.5377 62.5459 28.271 63.7114 29.5871L64.9759 31.0142C67.2156 33.5433 67.3781 35.6521 65.4714 37.3408V37.3448ZM60.0882 29.1947C59.5412 29.0401 59.0377 29.1669 58.5739 29.5792C58.1181 29.9835 57.9318 30.4671 58.019 31.0261C58.1062 31.589 58.5224 32.2906 59.2637 33.127L60.9088 34.9901C61.654 35.8305 62.3081 36.334 62.871 36.5005C63.4379 36.667 63.9453 36.548 64.4051 36.1437C64.8649 35.7354 65.0433 35.2478 64.9442 34.677C64.8411 34.1062 64.417 33.3966 63.6638 32.5483L62.0187 30.6891C61.2735 29.8487 60.6313 29.3493 60.0843 29.1947H60.0882Z" fill="#03403F"/>
<path d="M64.0372 24.5321C64.0253 24.1158 64.1324 23.7194 64.3504 23.3468C64.5684 22.9781 64.9014 22.665 65.3414 22.4152C65.7933 22.1576 66.2333 22.0307 66.6654 22.0307C67.0975 22.0307 67.49 22.1417 67.8388 22.3677C68.1876 22.5897 68.473 22.8989 68.695 23.2873L69.0003 23.8264C69.2183 24.211 69.3332 24.6113 69.3451 25.0196C69.357 25.4319 69.2539 25.8204 69.032 26.193C68.8139 26.5656 68.481 26.8748 68.033 27.1285C67.5851 27.3822 67.1451 27.5091 66.713 27.5091C66.2809 27.5091 65.8885 27.3981 65.5357 27.1801C65.1829 26.962 64.8974 26.6608 64.6794 26.2762L64.3742 25.7371C64.1561 25.3526 64.0412 24.9483 64.0293 24.5321H64.0372ZM66.5623 26.197C66.8438 26.308 67.1411 26.2762 67.4503 26.0979C67.7516 25.9274 67.926 25.6935 67.9775 25.3923C68.0251 25.095 67.9696 24.7976 67.8031 24.5043L67.4979 23.9692C67.3274 23.6718 67.1015 23.4657 66.8161 23.3547C66.5306 23.2437 66.2373 23.2754 65.9281 23.4459C65.6268 23.6163 65.4524 23.8542 65.4048 24.1555C65.3573 24.4567 65.4167 24.754 65.5872 25.0513L65.8924 25.5865C66.0589 25.8798 66.2809 26.082 66.5623 26.193V26.197ZM69.9437 31.7427L70.3996 20.9961H71.5809L71.125 31.7467H69.9437V31.7427ZM72.1596 27.4734C72.1517 27.0572 72.2548 26.6647 72.4767 26.2921C72.6948 25.9195 73.0278 25.6103 73.4678 25.3605C73.9197 25.1029 74.3597 24.976 74.7918 24.98C75.2239 24.98 75.6124 25.091 75.9652 25.3169C76.314 25.5389 76.5994 25.8442 76.8174 26.2287L77.1266 26.7718C77.3447 27.1563 77.4596 27.5566 77.4715 27.9729C77.4834 28.3891 77.3803 28.7815 77.1623 29.1502C76.9443 29.5189 76.6113 29.832 76.1673 30.0857C75.7194 30.3394 75.2794 30.4663 74.8473 30.4663C74.4152 30.4663 74.0227 30.3553 73.6699 30.1333C73.3171 29.9113 73.0317 29.61 72.8137 29.2216L72.5045 28.6785C72.2865 28.294 72.1715 27.8936 72.1636 27.4774L72.1596 27.4734ZM74.4192 28.9956C74.5856 29.1106 74.772 29.178 74.9741 29.1938C75.1763 29.2097 75.3785 29.1581 75.5767 29.0471C75.9017 28.8608 76.0841 28.6269 76.1237 28.3415C76.1633 28.0561 76.096 27.7588 75.9255 27.4575L75.6163 26.9145C75.4459 26.6172 75.2199 26.415 74.9384 26.304C74.657 26.197 74.3597 26.2287 74.0545 26.4031C73.7532 26.5736 73.5748 26.8114 73.5233 27.1087C73.4717 27.41 73.5312 27.7073 73.6977 28.0046L74.0069 28.5477C74.1139 28.734 74.2487 28.8846 74.4152 29.0035L74.4192 28.9956Z" fill="#03403F"/>
<path d="M90.8269 23.5174C90.601 24.1794 90.2006 24.7503 89.6258 25.222C89.051 25.6937 88.3097 26.0346 87.4059 26.2368C86.4704 26.4429 85.6102 26.4073 84.8173 26.1179C84.0245 25.8325 83.3506 25.3251 82.7957 24.5917C82.2367 23.8623 81.8403 22.9506 81.5946 21.8605L81.3924 20.9606C81.1506 19.8705 81.1307 18.8755 81.3329 17.9757C81.5351 17.0758 81.9394 16.3266 82.5499 15.728C83.1564 15.1255 83.9334 14.7212 84.8768 14.5111C85.7687 14.3129 86.5655 14.3089 87.2711 14.4992C87.9767 14.6894 88.5714 15.0422 89.055 15.5576C89.5386 16.0689 89.9072 16.7072 90.1569 17.4683L88.1392 17.9162C87.8816 17.1749 87.5288 16.6517 87.0808 16.3504C86.6329 16.0491 86.0185 15.9817 85.2415 16.1562C84.3694 16.3504 83.7827 16.8182 83.4815 17.5634C83.1802 18.3086 83.1643 19.2838 83.4339 20.4929L83.6361 21.4086C83.9017 22.5978 84.3139 23.4738 84.8768 24.0407C85.4358 24.6076 86.1572 24.7899 87.0412 24.5917C87.5843 24.4728 88.0085 24.2865 88.3097 24.0447C88.615 23.7989 88.8171 23.4937 88.9202 23.129C89.0232 22.7643 89.047 22.3243 88.9995 21.8089L91.0172 21.361C91.1202 22.1379 91.0568 22.8594 90.8269 23.5214V23.5174Z" fill="#03403F"/>
<path d="M100.733 23.1849L100.776 24.8498L94.6477 25.0044L93.1254 25.0441L92.8281 13.3778L94.9053 13.3262L100.435 13.1875L100.479 14.8603L94.9489 14.9991L95.0282 18.1664L99.797 18.0475L99.8366 19.6807L95.0678 19.8035L95.159 23.3276L100.736 23.1849H100.733Z" fill="#03403F"/>
<path d="M110.631 26.3009L110.615 26.4039L108.419 26.0392L106.869 21.2467L104.677 20.882L103.943 25.294L101.894 24.9531L103.809 13.4414L107.888 14.1193C109.216 14.3413 110.195 14.809 110.817 15.5265C111.439 16.244 111.662 17.1637 111.475 18.2855C111.348 19.0426 111.059 19.6571 110.607 20.1248C110.155 20.5926 109.572 20.9097 108.855 21.0841L110.627 26.3048L110.631 26.3009ZM104.95 19.2369L106.992 19.5778C107.678 19.6928 108.229 19.6055 108.649 19.3241C109.065 19.0426 109.323 18.6145 109.418 18.0477C109.517 17.4412 109.422 16.9417 109.132 16.5453C108.839 16.1489 108.336 15.8912 107.618 15.7723L105.585 15.4353L104.95 19.2369Z" fill="#03403F"/>
<path d="M122.606 20.2232L119.201 18.9627L115.732 28.3377L113.794 27.6202L117.263 18.2452L113.893 17.0004L114.476 15.4307L119.784 17.3929L123.189 18.6535L122.606 20.2232Z" fill="#03403F"/>
<path d="M120.188 30.3558L125.734 20.0889L127.553 21.072L122.008 31.3389L120.188 30.3558Z" fill="#03403F"/>
<path d="M131.407 25.4487L129.409 28.2077L133.207 30.9587L132.227 32.3105L128.43 29.5594L125.544 33.5473L123.863 32.3303L130.709 22.876L132.39 24.0929L136.735 27.2365L135.752 28.5922L131.407 25.4487Z" fill="#03403F"/>
<path d="M130.792 37.7007L138.819 29.2295L140.322 30.6526L132.294 39.1238L130.792 37.7007Z" fill="#03403F"/>
<path d="M139.925 45.4626L138.625 46.5091L134.78 41.7324L133.824 40.5471L142.918 33.2334L144.218 34.8507L147.683 39.1597L146.378 40.2102L142.914 35.9012L140.448 37.8872L143.437 41.6055L142.165 42.6283L139.176 38.91L136.429 41.1219L139.925 45.4705V45.4626Z" fill="#03403F"/>
<path d="M151.845 47.8408C151.809 48.7604 151.52 49.6087 150.981 50.3897C150.442 51.1706 149.685 51.8167 148.706 52.3281L148.202 52.5937C147.219 53.109 146.252 53.3667 145.308 53.3627C144.361 53.3627 143.501 53.109 142.72 52.6056C141.939 52.1021 141.305 51.3767 140.805 50.4333L139.659 48.2491L139.235 47.4404L149.574 42.0215L150.537 43.8608L151.179 45.0897C151.659 46.0093 151.881 46.925 151.845 47.8447V47.8408ZM147.75 50.4769C148.856 49.8981 149.578 49.2123 149.911 48.4195C150.244 47.6307 150.172 46.7784 149.693 45.8627L149.05 44.6338L141.673 48.5028L142.28 49.6603C142.775 50.6077 143.453 51.1666 144.305 51.345C145.162 51.5194 146.137 51.3212 147.227 50.7504L147.746 50.4769H147.75Z" fill="#03403F"/>
<path d="M53.5667 114.743C52.865 114.426 52.1475 113.823 51.4063 112.935C50.772 112.174 50.3875 111.366 50.2487 110.505C50.11 109.645 50.2289 108.781 50.6134 107.921C50.994 107.057 51.6322 106.256 52.5281 105.511L53.1148 105.023C54.0225 104.27 54.9224 103.77 55.8183 103.529C56.7102 103.287 57.5585 103.303 58.3592 103.576C59.16 103.85 59.8775 104.369 60.5157 105.138C61.3957 106.192 61.808 107.219 61.7644 108.214C61.7168 109.209 61.3006 110.133 60.5078 110.985L59.2076 109.419C60.1312 108.365 60.151 107.306 59.2631 106.236C58.6764 105.53 57.9747 105.213 57.1581 105.293C56.3415 105.368 55.4456 105.816 54.4665 106.629L53.8679 107.124C53.2218 107.659 52.7501 108.206 52.4448 108.765C52.1396 109.324 52.0127 109.871 52.0643 110.41C52.1158 110.949 52.3378 111.457 52.7342 111.932C53.1227 112.4 53.4755 112.721 53.7847 112.888C54.0939 113.058 54.3833 113.149 54.6489 113.165L56.3812 111.726L54.8629 109.903L56.072 108.9L58.9142 112.321L55.4575 115.195C54.8986 115.215 54.2683 115.068 53.5667 114.751V114.743Z" fill="#03403F"/>
<path d="M63.6349 121.957L62.5765 123.245L58.0772 119.543L56.8999 118.576L64.3167 109.565L65.9182 110.885L59.5598 118.607L63.6309 121.961L63.6349 121.957Z" fill="#03403F"/>
<path d="M74.1162 125.522C73.692 126.279 73.1688 126.826 72.5385 127.175C71.9082 127.52 71.2264 127.666 70.501 127.611C69.7716 127.555 69.0462 127.325 68.3247 126.921C67.5834 126.509 67.0007 126.005 66.5726 125.415C66.1445 124.824 65.9185 124.174 65.8907 123.464C65.863 122.755 66.0612 122.017 66.4854 121.256L70.2829 114.462L72.0866 115.473L68.289 122.267C67.8966 122.965 67.7816 123.587 67.9441 124.126C68.1067 124.665 68.5031 125.113 69.1373 125.466C69.7795 125.827 70.3702 125.934 70.9093 125.787C71.4484 125.641 71.9122 125.216 72.3086 124.511L76.1062 117.716L77.9178 118.731L74.1202 125.526L74.1162 125.522Z" fill="#03403F"/>
<path d="M86.643 123.425L83.1903 122.295L80.0785 131.793L78.1123 131.147L81.2241 121.649L77.811 120.531L78.3343 118.938L83.7135 120.702L87.1663 121.831L86.643 123.425Z" fill="#03403F"/>
<path d="M94.1188 132.835L93.8929 134.488L87.816 133.66L86.3057 133.454L87.8834 121.891L89.9407 122.172L95.423 122.917L95.1971 124.578L89.7148 123.833L89.2867 126.969L94.0119 127.615L93.7898 129.236L89.0646 128.59L88.589 132.086L94.1149 132.839L94.1188 132.835Z" fill="#03403F"/>
<path d="M104.141 134.194L98.4997 126.322L99.0111 134.515L96.9379 134.646L96.2085 123L98.2817 122.869L103.938 130.757L103.427 122.548L105.484 122.421L106.21 134.067L104.137 134.198L104.141 134.194Z" fill="#03403F"/>
<path d="M113.115 122.116L114.221 125.339L118.656 123.813L119.2 125.39L114.764 126.912L116.365 131.566L114.403 132.24L110.609 121.204L112.572 120.53L117.642 118.786L118.185 120.372L113.115 122.116Z" fill="#03403F"/>
<path d="M131.719 124.221L131.77 124.312L129.828 125.403L125.618 122.636L123.683 123.722L125.875 127.622L124.064 128.641L118.348 118.465L121.955 116.44C123.128 115.782 124.183 115.532 125.122 115.698C126.058 115.865 126.807 116.444 127.362 117.439C127.739 118.109 127.897 118.767 127.838 119.417C127.778 120.067 127.525 120.677 127.073 121.264L131.723 124.221H131.719ZM122.863 122.271L124.666 121.26C125.273 120.919 125.65 120.507 125.8 120.027C125.951 119.544 125.883 119.052 125.598 118.549C125.297 118.013 124.908 117.68 124.433 117.558C123.957 117.431 123.402 117.546 122.768 117.902L120.972 118.913L122.859 122.275L122.863 122.271Z" fill="#03403F"/>
<path d="M138.786 116.428L139.857 117.704L135.155 121.641L133.986 122.62L126.494 113.669L128.087 112.337L132.329 108.785L133.403 110.07L129.161 113.621L131.195 116.047L134.854 112.987L135.904 114.24L132.246 117.3L134.509 120.003L138.786 116.42V116.428Z" fill="#03403F"/>
<path d="M145.498 108.706L146.774 109.78L142.826 114.473L141.847 115.639L132.916 108.123L134.251 106.533L137.811 102.3L139.092 103.378L135.532 107.612L137.954 109.649L141.026 105.998L142.279 107.053L139.207 110.704L141.906 112.975L145.498 108.706Z" fill="#03403F"/>
<path d="M97.8742 33.483C114.297 33.483 128.465 43.2941 134.831 57.3626H138.078C131.529 41.6014 115.974 30.498 97.8703 30.498C79.7663 30.498 64.2113 41.6014 57.6626 57.3626H60.9092C67.2755 43.2941 81.4431 33.483 97.8663 33.483H97.8742ZM97.8742 114.572C81.8475 114.572 67.9613 105.225 61.3849 91.6875H58.0947C64.8772 106.914 80.1588 117.557 97.8742 117.557C115.59 117.557 130.871 106.918 137.654 91.6875H134.364C127.787 105.225 113.901 114.572 97.8742 114.572Z" fill="#03403F"/>
<path d="M97.874 37.4631C112.038 37.4631 124.346 45.5578 130.415 57.3628H132.08C125.896 44.7055 112.886 35.9727 97.874 35.9727C82.8621 35.9727 69.8519 44.7095 63.668 57.3628H65.3329C71.4059 45.5578 83.7143 37.4631 97.874 37.4631ZM97.874 110.592C84.1147 110.592 72.1035 102.95 65.868 91.6878H64.1714C70.5457 103.802 83.2585 112.083 97.874 112.083C112.49 112.083 125.206 103.802 131.577 91.6878H129.88C123.648 102.95 111.633 110.592 97.874 110.592Z" fill="#03403F"/>
<path d="M97.8742 7.86354C128.604 7.86354 154.505 28.9168 161.91 57.363H163.452C156.015 28.0922 129.428 6.37305 97.8742 6.37305C66.3201 6.37305 39.733 28.0922 32.2964 57.363H33.8384C41.2394 28.9168 67.1486 7.86354 97.8742 7.86354ZM97.8742 140.192C67.5093 140.192 41.8498 119.627 34.108 91.6879H32.5541C40.3395 120.455 66.6689 141.683 97.8742 141.683C129.079 141.683 155.409 120.455 163.194 91.6879H161.64C153.898 119.627 128.247 140.192 97.8742 140.192Z" fill="#03403F"/>
<path d="M97.8739 3.88339C130.811 3.88339 158.52 26.7006 166.016 57.3628H169.085C161.525 25.0397 132.468 0.898438 97.8739 0.898438C63.2793 0.898438 34.2226 25.0397 26.6592 57.3628H29.7274C37.2234 26.7046 64.9403 3.88339 97.8699 3.88339H97.8739ZM97.8739 144.172C65.301 144.172 37.8339 121.846 29.985 91.6877H26.901C34.8212 123.511 63.6401 147.157 97.8739 147.157C132.108 147.157 160.93 123.511 168.847 91.6877H165.763C157.918 121.846 130.451 144.172 97.8739 144.172Z" fill="#03403F"/>
<path d="M114.622 46.5215L115.871 49.2527L118.852 49.5936L116.64 51.6233L117.238 54.5646L114.622 53.086L112.01 54.5646L112.608 51.6233L110.396 49.5936L113.377 49.2527L114.622 46.5215Z" fill="#03403F"/>
<path d="M81.1251 46.5215L79.8804 49.2527L76.8994 49.5936L79.1114 51.6233L78.5128 54.5646L81.1251 53.086L83.7414 54.5646L83.1428 51.6233L85.3548 49.5936L82.3738 49.2527L81.1251 46.5215Z" fill="#03403F"/>
<path d="M97.8737 41.5029L99.6338 45.36L103.844 45.8396L100.72 48.7057L101.564 52.86L97.8737 50.7749L94.1871 52.86L95.0315 48.7057L91.9038 45.8396L96.1176 45.36L97.8737 41.5029Z" fill="#03403F"/>
<path d="M81.1251 93.7412L79.8804 96.4725L76.8994 96.8134L79.1114 98.839L78.5128 101.784L81.1251 100.306L83.7414 101.784L83.1428 98.839L85.3548 96.8134L82.3738 96.4725L81.1251 93.7412Z" fill="#03403F"/>
<path d="M114.622 93.7412L115.871 96.4725L118.852 96.8134L116.64 98.839L117.238 101.784L114.622 100.306L112.01 101.784L112.608 98.839L110.396 96.8134L113.377 96.4725L114.622 93.7412Z" fill="#03403F"/>
<path d="M97.8737 95.4453L96.1176 99.2984L91.9038 99.782L95.0315 102.644L94.1871 106.798L97.8737 104.713L101.564 106.798L100.72 102.644L103.844 99.782L99.6338 99.2984L97.8737 95.4453Z" fill="#03403F"/>
<path d="M195.383 68.8027H181.453V91.2077L168.522 100.147H195.383L186.178 84.4767L195.383 68.8027Z" fill="#03403F"/>
<path d="M170.377 91.6875C169.823 93.9708 169.164 96.2184 168.399 98.4145L178.131 91.6875H170.377Z" fill="#03403F"/>
<path d="M0.369629 68.8027H14.2994V91.2077L27.2302 100.147H0.369629L9.57421 84.4767L0.369629 68.8027Z" fill="#03403F"/>
<path d="M25.3758 91.6875C25.9308 93.9708 26.5888 96.2184 27.3539 98.4145L17.6221 91.6875H25.3758Z" fill="#03403F"/>
<path d="M138.78 69.0059H136.029V73.9253H138.78C139.652 73.9253 140.31 73.7073 140.762 73.2713C141.214 72.8352 141.44 72.2366 141.44 71.4755C141.44 70.7144 141.218 70.0921 140.77 69.656C140.322 69.22 139.66 69.002 138.784 69.002L138.78 69.0059Z" fill="#03403F"/>
<path d="M15.7939 58.8535V90.1935H179.958V58.8535H15.7939ZM37.1286 80.8859C36.8115 81.2585 36.3675 81.6232 35.8007 81.9799C35.2338 82.3367 34.5084 82.638 33.6204 82.8838C32.7325 83.1295 31.7177 83.2524 30.5641 83.2524C29.0855 83.2524 27.7932 82.9313 26.6833 82.2852C25.5733 81.639 24.7092 80.6996 24.0947 79.4707C23.4803 78.2379 23.1751 76.7593 23.1751 75.0349V74.0439C23.1751 72.3195 23.4724 70.8369 24.067 69.6001C24.6616 68.3633 25.498 67.4199 26.5723 66.7737C27.6505 66.1236 28.9032 65.7986 30.3342 65.7986C32.4708 65.7986 34.0882 66.302 35.1862 67.3129C36.2803 68.3237 36.9264 69.7151 37.1207 71.487H33.5768C33.446 70.5912 33.1328 69.9133 32.6452 69.4455C32.1537 68.9778 31.4203 68.7479 30.4412 68.7479C29.2916 68.7479 28.4116 69.1958 27.8012 70.0877C27.1907 70.9836 26.8855 72.2917 26.8855 74.0161V75.0309C26.8855 76.7711 27.2145 78.0872 27.8725 78.9712C28.5305 79.8592 29.5017 80.2992 30.794 80.2992C32.0863 80.2992 32.9307 80.0336 33.4738 79.5064V76.6958H30.3857V74.0359H37.1366V80.8819L37.1286 80.8859ZM50.8523 83.0185H39.844V66.0404H43.5068V80.0653H50.8523V83.0146V83.0185ZM65.4282 77.1993C65.4282 78.4836 65.1507 79.5777 64.5997 80.4855C64.0487 81.3933 63.2796 82.083 62.2966 82.5508C61.3135 83.0185 60.1758 83.2485 58.8875 83.2485C57.5991 83.2485 56.4456 83.0146 55.4545 82.5508C54.4635 82.083 53.6905 81.3972 53.1395 80.4855C52.5885 79.5738 52.311 78.4797 52.311 77.1993V66.0404H55.9857V77.1993C55.9857 79.2685 56.953 80.2992 58.8875 80.2992C59.8269 80.2992 60.5444 80.0494 61.032 79.546C61.5236 79.0465 61.7654 78.2616 61.7654 77.1953V66.0364H65.4282V77.1953V77.1993ZM81.1457 69.0055H75.9687V83.0185H72.3178V69.0055H67.2239V66.0444H81.1457V69.0055ZM94.5285 83.0185H83.0683V66.0404H94.5166V69.0016H86.7272V72.8626H93.3631V75.7207H86.7272V80.0693H94.5285V83.0185ZM110.397 83.0185H106.746L100.146 72.0698V83.0185H96.4828V66.0404H100.146L106.746 76.9892V66.0404H110.397V83.0185ZM130.431 69.0055H122.947V73.2035H129.626V76.1409H122.947V83.0185H119.284V66.0404H130.431V69.0016V69.0055ZM145.717 83.0185H141.8L138.676 76.8861H136.028V83.0185H132.366V66.0404H138.779C140.092 66.0404 141.221 66.2386 142.165 66.631C143.108 67.0235 143.834 67.6022 144.341 68.3673C144.845 69.1324 145.098 70.0679 145.098 71.1699C145.098 72.375 144.837 73.3581 144.317 74.1271C143.798 74.8922 143.049 75.4987 142.078 75.9387L145.717 82.8402V83.0146V83.0185ZM159.159 83.0185H147.699V66.0404H159.147V69.0016H151.357V72.8626H157.993V75.7207H151.357V80.0693H159.159V83.0185ZM172.577 83.0185H161.117V66.0404H172.565V69.0016H164.776V72.8626H171.412V75.7207H164.776V80.0693H172.577V83.0185Z" fill="#03403F"/>
<path d="M47.7556 100.214C48.8546 100.214 49.7456 99.3234 49.7456 98.2243C49.7456 97.1253 48.8546 96.2344 47.7556 96.2344C46.6566 96.2344 45.7656 97.1253 45.7656 98.2243C45.7656 99.3234 46.6566 100.214 47.7556 100.214Z" fill="#03403F"/>
<path d="M147.996 100.214C149.095 100.214 149.986 99.3234 149.986 98.2243C149.986 97.1253 149.095 96.2344 147.996 96.2344C146.897 96.2344 146.006 97.1253 146.006 98.2243C146.006 99.3234 146.897 100.214 147.996 100.214Z" fill="#03403F"/>
</svg>
