<svg width="147" height="138" viewBox="0 0 147 138" fill="none" xmlns="http://www.w3.org/2000/svg">
<path d="M139.507 51.8439L110.595 51.8213C107.17 45.0464 102.249 39.0214 95.832 34.8464C74.8066 21.1724 46.5655 29.153 36.049 51.761H6.83203C14.1796 23.6668 38.9353 3.07851 67.7265 0.802639C100.813 -1.81235 131.44 19.8159 139.507 51.8401V51.8439ZM95.5494 11.8881L92.9532 11.24L89.1589 18.9493C89.1476 17.9018 89.9841 10.7577 89.7542 10.3959C89.6789 10.2754 87.2297 9.55945 86.9923 9.64235C86.574 9.78553 83.6011 16.6282 83.2205 17.623C82.8287 17.4233 83.0133 17.0728 83.0095 16.7639C83.0095 15.6485 83.8121 9.07338 83.5521 8.76818C83.1904 8.34616 81.3817 8.32732 80.7789 8.13515L80.5528 20.4753C80.7487 20.7052 83.2356 21.293 83.5069 21.1234C84.0419 20.7881 86.5967 14.537 87.2221 13.5309L86.8755 21.9561C87.0111 22.3141 89.1514 22.4573 89.7128 22.7813L95.5494 11.8918V11.8881ZM100.923 14.6651C100.026 14.4993 98.8502 13.0599 98.2247 14.066L93.3414 24.5824L95.8018 25.5433L100.919 14.6651H100.923ZM111.239 20.9878C110.143 20.6487 103.952 15.8558 103.515 15.9914C103.251 16.0743 102.268 17.5514 102.369 17.8641C102.509 18.2861 104.344 19.0623 104.751 19.5145C104.529 20.724 99.3588 27.3444 99.5209 27.8116L101.842 29.1982C102.592 28.2939 106.884 21.1423 107.362 21.2327C109.235 22.6457 110.109 23.8288 111.243 20.9878H111.239ZM73.8608 8.13138L66.4228 8.32355L67.1161 20.3548L74.6408 20.1061C74.6408 19.6727 74.622 17.9018 74.3168 17.7624C73.7666 17.5061 70.5525 18.2824 69.6859 17.9093C69.3204 17.6682 69.49 15.6448 69.4674 15.0984C70.0062 15.1964 73.4765 15.0758 73.6348 14.9364C73.9098 14.6952 73.8797 12.8489 73.5443 12.6869C73.2806 12.5625 70.1192 12.9808 69.5201 13.0034C69.245 12.8979 69.0642 10.8443 69.2111 10.5467C69.8366 10.1473 73.4652 10.4713 73.6536 10.3507C73.9739 10.1473 73.6724 8.55717 73.8608 8.12762V8.13138ZM115.742 25.1288C115.113 24.7934 114.329 23.226 113.583 23.5161L105.233 31.7077L107.2 33.5842L110.659 30.2796L113.764 33.2752L110.135 36.8962C110.094 37.0206 111.808 38.6973 111.989 38.7086C112.577 38.7463 119.536 31.5155 120.565 30.5848C120.693 30.1252 118.926 28.4484 118.659 28.5351C118.27 29.153 115.919 31.606 115.362 31.4515C115.158 31.395 112.449 28.6067 112.494 28.3994L115.746 25.1326L115.742 25.1288ZM52.3456 11.5753C52.6131 12.9431 54.9681 22.7625 55.4806 23.0639C56.1098 23.4407 60.2546 22.039 61.0271 21.6283C64.1017 19.993 65.104 16.9975 63.8757 13.7608C61.792 8.27457 56.5545 10.1473 52.3456 11.5753ZM44.6853 28.5878C45.0734 28.9948 47.1269 27.8191 47.2362 27.6044C47.5151 27.0693 46.5165 25.0195 46.6861 24.4732C46.8217 24.0361 49.399 22.5741 49.855 22.868C50.2807 23.1393 51.43 24.8424 51.8784 24.9404C52.1497 25.0007 54.0035 23.7459 54.4632 23.5952L45.4653 14.861C45.1261 14.7781 42.3642 16.3946 42.3077 16.6659L44.6853 28.5878ZM35.9699 24.5937L42.172 30.5735C42.5978 31.0445 44.2708 29.2284 44.2821 29.0739C43.2836 28.0791 35.9021 20.5658 35.3143 20.7353C35.1523 20.7843 33.3436 22.9095 33.0271 23.2486L36.7047 30.5698L29.602 26.3459C29.1159 26.8432 27.1189 28.3693 27.0963 28.9043L34.7679 38.0718C35.0392 37.8006 36.4598 36.6852 36.4371 36.4818C36.3656 35.8525 31.5388 30.7092 30.6834 29.9104C30.7399 29.5223 31.2222 29.8463 31.4182 29.9556C33.743 31.2556 35.9812 33.132 38.4153 34.3302C40.1185 33.0378 40.028 33.0378 39.2631 31.2329C38.3249 29.0287 36.9081 26.8169 35.9699 24.5937Z" fill="#03403F"/>
<path d="M139.429 87.3009C131.942 115.056 107.231 135.411 78.7189 137.622C45.6736 140.188 15.5937 118.903 6.99512 87.1727H36.1481C43.3261 101.536 57.9459 110.632 74.1521 110.335C89.4313 110.052 103.644 100.869 110.276 87.0898L138.547 87.1388L139.429 87.3009ZM114.066 100.572C113.531 99.641 114.473 98.2469 115.099 97.5536C116.135 96.4081 116.99 97.0072 115.317 95.0592C112.322 96.1895 110.057 101.77 113.754 103.307C116.934 104.63 118.953 101.148 120.773 101.499C123.046 101.936 121.953 104.796 120.555 105.738L119.025 106.845C120.069 108.424 120.333 108.609 121.764 107.335C123.562 105.738 125.242 102.731 123.539 100.527C122.48 99.1587 121.003 98.7857 119.383 99.2755C118.06 99.6749 115.174 102.501 114.059 100.568L114.066 100.572ZM111.817 102.493C111.38 102.384 110.713 101.133 110.351 101.224C109.469 101.442 105.027 106.71 103.761 107.448C103.045 107.829 104.45 109.283 104.722 109.238C105.423 108.989 106.903 106.736 107.54 106.989L115.035 114.747C115.238 113.99 116.794 113.613 116.342 112.72L109.119 105.353C108.968 104.89 111.5 103.096 111.813 102.493H111.817ZM107.717 120.587C107.834 120.561 109.56 119.325 109.488 119.073L102.973 108.387C102.615 108.217 101.089 109.148 101.236 109.668L105.973 117.317L96.7864 112.249C96.1986 112.136 94.876 113.217 94.2392 113.439L100.912 124.544C101.308 124.212 102.808 123.85 102.698 123.244L97.6643 115.048C98.9115 115.659 107.152 120.708 107.714 120.584L107.717 120.587ZM31.2723 94.1511L20.379 100.884L21.483 102.942L32.2557 96.28C32.6815 96.0238 31.3891 94.1887 31.2685 94.1511H31.2723ZM93.0787 114.148C92.9016 113.925 88.3385 115.534 87.7017 115.776C87.3023 115.926 85.976 116.269 85.927 116.654L90.2112 128.688L96.922 126.341C97.7472 126.153 97.0614 124.434 96.4133 124.378C95.5957 124.306 91.9746 126.375 91.4547 125.821C91.3379 125.697 90.6559 122.961 90.6106 122.513C90.848 122.064 94.4427 121.367 94.8873 120.896C95.0041 120.772 94.6047 119.265 94.5519 119.197C94.2505 118.816 90.6446 120.55 89.9023 120.553L88.8208 117.754C88.9113 117.076 92.928 116.401 93.4103 115.84C93.5308 115.7 93.1314 114.212 93.0787 114.144V114.148ZM35.1872 99.7428C35.1533 99.6033 33.4728 97.7834 33.0432 97.9266L23.7514 106.499L25.3565 108.014L32.6438 101.465C32.105 102.708 31.4117 104.181 30.9784 105.448C30.4584 106.966 29.1584 110.613 29.0115 112.008C28.9663 112.426 30.3077 113.948 30.5903 113.967C31.2308 114.008 38.861 106.269 40.176 105.459C40.2024 105.342 38.8648 103.624 38.4013 104.106L31.6453 110.154C32.1352 108.952 32.8285 107.591 33.2467 106.382C33.5331 105.553 35.2664 100.082 35.1872 99.7465V99.7428ZM83.9714 116.917C83.8735 116.789 82.1967 117.094 81.8915 117.162C81.6654 117.211 81.5637 116.974 81.5524 117.418L83.783 129.152C83.7491 130.343 86.2435 129.808 86.2699 129.069L83.9677 116.917H83.9714ZM69.5965 131.021C75.2485 131.65 81.5788 129.955 80.3956 122.825C79.5177 117.535 73.3683 117.313 69.2763 118.391L69.5965 131.021ZM43.5635 117.2C43.6539 117.4 42.0488 119.951 41.8151 120.022C34.6032 117.644 39.739 107.584 45.8921 111.789C47.3202 112.765 47.6593 114.875 49.2795 112.456C49.2343 112.177 48.1868 111.148 47.8967 110.888C40.0253 103.974 31.683 114.498 38.115 120.041C38.9703 120.779 41.7059 122.486 42.7684 122.449C43.3073 122.43 46.1295 117.773 46.6382 116.966C45.7866 116.917 43.3073 114.468 42.7458 114.66C42.6592 114.69 41.736 116.066 41.8001 116.198C42.0751 116.356 43.522 117.109 43.5635 117.2ZM68.0215 117.874L60.6815 116.571L58.1758 129.19L65.8135 130.572L66.1714 128.609L60.9302 127.626C60.7983 127.453 61.42 124.103 61.582 124.012L66.179 124.815C66.5068 124.74 66.4201 123.372 66.7103 123.006L61.9626 122.015C61.8835 121.891 62.313 119.204 62.3884 119.076C62.7576 118.455 67.1398 119.935 67.4525 119.777C67.5467 119.732 67.8746 118.191 68.0253 117.874H68.0215ZM54.7243 121.477C54.7544 121.461 55.1274 121.593 55.3686 121.533C56.3031 121.296 56.9549 121.07 57.49 120.192C60.1879 115.76 54.615 113.865 51.2276 113.149L46.4611 124.758L48.5711 125.844L50.5192 120.9C51.156 121.085 52.0452 121.386 52.5162 121.865C53.7973 123.161 52.0904 126.722 52.6896 127.438C53.0287 127.844 54.2608 127.92 54.7808 128.172C54.8788 126.673 55.6964 123.922 55.2066 122.539C55.0898 122.211 54.2985 121.71 54.7243 121.477Z" fill="#03403F"/>
<path d="M4.48856 53.6714C5.11028 53.3586 6.03722 53.1627 6.73429 53.0723L141.534 53.1476C144.262 53.8673 146.478 55.8832 146.975 58.7205L146.922 80.7067C145.977 83.4498 143.998 85.4506 141.071 85.8952L7.01689 85.8877C3.42223 85.3074 1.19157 83.2049 0.637674 79.6065C1.02578 73.2235 0.0649488 66.0869 0.600004 59.7944C0.822315 57.1643 2.05821 54.8884 4.49233 53.6676L4.48856 53.6714ZM134.111 58.1251C119.608 55.0919 117.916 81.7241 132.483 80.8047C143.987 80.0775 144.556 60.3068 134.111 58.1251ZM118.87 58.3248C118.7 58.1063 113.806 57.9895 113.368 58.0762C113.199 58.1101 113.041 58.0912 112.946 58.2796L108.866 73.2649L105.328 58.2495C105.154 58.0196 104.909 58.0272 104.661 57.9857C104.156 57.9028 99.442 57.9594 99.2423 58.144L97.8519 79.9908C98.0177 80.2244 101.914 80.2508 101.997 80.0473L102.86 63.3928L106.53 79.6555C106.955 80.1151 109.295 79.8062 110.015 79.8438L114.864 63.3212L115.305 80.2621L119.623 80.4166L118.877 58.3286L118.87 58.3248ZM89.86 61.7801C90.7907 61.927 92.068 62.447 93.0288 62.7334C93.0703 62.7447 93.3755 62.5751 93.4245 62.4885C93.2022 61.6407 94.4984 59.2631 94.1178 58.7845C84.939 55.1409 76.3404 60.4538 77.305 70.827C78.0096 78.4384 84.1364 81.1137 91.1637 80.0247C91.857 79.9192 94.5436 79.3879 94.747 78.8152L94.9505 67.4585L87.407 67.2625L87.3995 71.0795L90.5231 71.4299C90.1425 72.598 90.6211 74.4368 90.4289 75.4843C90.2631 76.3773 88.0626 76.2756 87.3241 76.1588C82.3277 75.3675 80.9524 69.6401 82.6518 65.484C83.7483 62.805 87.0867 61.3355 89.8675 61.7801H89.86ZM64.2527 79.874L64.4825 57.6994L60.3453 57.6278L60.4093 72.7299C58.3935 67.6092 55.9669 62.6731 53.3745 57.8199C52.862 57.4318 48.4723 57.3866 48.2651 57.5373C47.3834 58.193 48.2651 77.0066 47.7941 79.5085C47.9486 79.7044 51.0157 79.7346 51.5131 79.727C51.758 79.7233 51.856 79.9983 51.9276 79.5085L52.0595 63.7621L59.343 79.501C59.8705 80.0699 63.3371 79.5876 64.2565 79.874H64.2527ZM37.8504 57.2434C23.89 53.7241 21.0414 79.3578 34.9452 79.8702C47.2138 80.3224 48.4271 59.9112 37.8504 57.2434ZM75.1158 69.7908L67.3801 69.5535L67.1314 72.6621L74.626 72.9786C75.3004 72.7563 74.7051 70.4691 75.1158 69.7871V69.7908ZM23.11 57.3527L18.7768 57.2058L18.8672 72.2061L11.8324 57.2962L6.63255 57.0136L6.16532 79.2146L10.3403 79.1731L10.5098 63.2421L17.9252 79.192C18.238 79.4633 22.4958 79.5726 22.7294 79.2184L23.1062 57.3565L23.11 57.3527Z" fill="#03403F"/>
<path d="M59.3814 20.0419C59.0875 20.1888 57.7273 20.6297 57.5125 20.3772C56.9096 19.6689 56.043 14.307 55.5645 13.0899C60.2669 9.61585 64.001 17.7434 59.3814 20.0419Z" fill="#03403F"/>
<path d="M48.1409 20.8901C48.2766 21.3083 46.3361 22.0393 45.9894 22.3069L44.9155 17.8418L48.1447 20.8901H48.1409Z" fill="#03403F"/>
<path d="M74.0789 119.758C76.4188 120.108 77.6999 121.25 77.9222 123.62C78.3065 127.716 75.8611 129.283 72.0893 129.201L71.6899 120.229C71.8896 119.622 73.5363 119.675 74.0751 119.754L74.0789 119.758Z" fill="#03403F"/>
<path d="M51.2422 119.272L52.5987 115.53C58.0811 116.318 55.8655 121.917 51.2422 119.272Z" fill="#03403F"/>
<path d="M39.1729 63.4237C41.1435 66.8864 40.4125 76.5551 35.1034 75.8844C29.9865 75.2363 29.9601 67.316 31.5804 63.7251C33.1478 60.251 37.2964 60.1229 39.1729 63.4237Z" fill="#03403F"/>
<path d="M133.893 76.3397C132.721 77.0217 131.188 76.9312 129.997 76.3397C125.811 74.2597 126.165 62.9219 131.225 61.9761C137.571 60.7892 138.369 73.736 133.893 76.3397Z" fill="#03403F"/>
</svg>
