<svg width="143" height="145" viewBox="0 0 143 145" fill="none" xmlns="http://www.w3.org/2000/svg">
<path d="M0.0774212 68.3511C0.996247 55.6546 6.09155 42.4848 13.4461 32.1987C25.7966 14.928 45.5136 4.35948 66.6983 2.7207C66.9807 3.00709 67.2551 3.01107 67.1278 3.52418C66.3085 6.80172 66.5392 5.58855 63.9259 5.90278C12.6188 12.1158 -14.7948 69.6637 15.2679 112.63C42.8804 152.096 102.186 150.954 128.323 110.482C153.855 70.9485 132.639 19.8045 87.9864 7.69271C87.2466 7.49383 83.4002 6.85343 83.2491 6.66251C83.0303 6.39203 83.4161 4.56631 82.8115 3.91796C137.146 12.438 161.174 78.7645 124.381 120.462C114.394 131.782 96.4507 142.478 81.2205 143.926L77.5929 144.236C71.2765 144.777 64.9123 144.463 58.6794 143.297C56.3724 142.868 54.2722 142.474 53.2937 142.219C27.8132 135.581 7.73828 115.164 1.86336 89.4364L0.0774212 78.6929C0.256413 75.3119 -0.165213 71.7043 0.0774212 68.3511Z" fill="#03403F"/>
<path d="M76.4476 0.731445C84.3034 3.62316 80.2741 15.1741 72.5893 11.9443C67.0843 9.63332 68.3492 2.94299 73.2655 0.731445H76.4476ZM78.4364 5.50457C78.7506 3.56748 77.6568 2.08383 75.6561 2.32646C75.8748 3.76636 76.7936 5.48866 78.4364 5.50457Z" fill="#03403F"/>
<path d="M62.5298 32.1552C62.2633 31.8967 59.2125 32.8076 58.7193 30.9977C58.1385 28.8657 59.121 28.1021 61.1695 27.8196C65.0476 27.2787 77.0719 27.3145 81.0296 27.7759C84.3549 28.1657 84.4424 31.5188 81.8013 32.1473C81.0177 32.3342 79.6295 31.7654 79.2874 32.8155C79.009 33.6588 79.0806 43.8295 79.3232 44.9989C85.218 56.5459 93.6227 67.4326 99.5851 78.8324C101.037 81.6088 102.719 84.6238 102.119 87.8695C101.383 91.8391 97.9742 93.8836 94.1637 94.2337C79.3948 95.5861 62.5895 93.1876 47.6058 94.2178C41.1383 93.5177 38.159 87.8337 40.9752 82.0105L62.3389 46.0967C62.2792 44.3625 63.027 32.6445 62.5258 32.1592L62.5298 32.1552ZM75.2541 32.1552H66.9012V46.6735L53.429 69.0236C57.884 74.8826 66.1216 69.3617 71.4714 67.5519C77.4378 65.5313 83.0025 64.7477 88.3802 68.7531L75.2581 46.6775V32.1592L75.2541 32.1552ZM79.9119 68.8327C76.4037 69.6402 69.6616 78.2357 66.9091 80.8968C66.0062 81.3065 62.6491 77.667 61.4638 77.5556C60.7836 77.4919 58.7988 79.4171 59.5386 80.2643C60.7876 81.3542 66.0977 90.4748 66.7103 90.626C67.5694 90.8408 71.1572 84.2061 71.913 83.1043C73.6074 80.6263 75.3854 78.0647 77.2589 75.7219C78.0623 74.7195 82.7241 70.1374 82.8156 69.7356C83.0821 68.5224 80.7273 68.6457 79.9159 68.8327H79.9119Z" fill="#03403F"/>
<path d="M58.15 33.7451C58.0744 34.66 58.4682 36.0521 57.7681 36.7403C57.3346 37.1619 52.7046 38.9677 51.5233 39.6439C13.3304 61.3815 35.2549 120.875 79.2392 111.909C114.087 104.809 121.704 57.3482 90.639 39.6439C89.4537 38.9677 84.8278 37.1619 84.3942 36.7403C83.6902 36.0561 84.084 34.6639 84.0124 33.7451C110.889 42.1418 121.76 74.7383 105.416 97.9078C88.0775 122.485 50.8033 121.197 35.1634 95.5173C21.0071 72.2722 32.395 41.7918 58.154 33.7451H58.15Z" fill="#03403F"/>
<path d="M46.8821 115.421C49.3562 118.023 47.5225 122.151 43.8353 121.654C44.4996 123.544 45.0843 124.351 43.8353 126.229C40.7049 130.93 34.7147 124.586 31.5405 122.649L39.1059 110.958C39.4838 110.736 39.8776 110.982 40.2316 111.126C41.0192 111.444 46.3611 114.876 46.8821 115.421ZM40.8481 114.53C40.5896 114.53 38.8633 116.607 39.2253 117.279C39.3684 117.541 42.2085 119.506 42.5426 119.594C44.2092 120.019 45.2354 118.202 44.428 116.881C44.3166 116.698 41.0589 114.534 40.8481 114.534V114.53ZM35.4784 122.438C37.3717 122.804 39.0304 125.644 41.047 124.637C43.7518 123.281 39.0065 119.856 37.6461 119.65C36.9063 119.534 36.0511 121.937 35.4784 122.442V122.438Z" fill="#03403F"/>
<path d="M111.479 100.936C113.3 95.2837 117.103 88.6093 124.056 92.1454C130.551 95.4468 127.413 102.841 123.988 107.296L111.479 100.936ZM123.352 103.33C129.056 95.1326 117.787 89.719 115.034 99.3687L123.352 103.33Z" fill="#03403F"/>
<path d="M17.981 108.131L32.181 103.031C32.7219 103.023 34.9415 105.163 35.021 105.597C35.1841 106.448 28.7881 117.649 27.7261 119.256C27.3363 118.687 25.6657 117.534 25.5782 117.021C25.4469 116.257 27.0777 115.764 26.4453 114.212C26.3538 113.99 23.5973 110.732 23.3467 110.517C21.9864 109.352 21.0039 111.01 20.2243 110.859C19.6356 110.748 18.5179 108.679 17.9849 108.131H17.981ZM31.5008 106.54L25.5344 108.528C25.2122 108.974 27.6028 111.619 28.1199 112.096L31.5008 106.54Z" fill="#03403F"/>
<path d="M110.114 102.59C114.378 104.34 108.463 107.534 107.083 109.523C109.823 113.767 111.888 108.318 114.433 106.548L116.215 108.33L111.454 113.5C112.146 113.946 113.252 116.018 114.226 115.513C116.442 114.368 118.093 108.417 120.563 112.363C119.751 113.337 114.425 119.499 113.952 119.622C113.479 119.745 113.145 119.622 112.822 119.292L103.101 109.921L110.11 102.59H110.114Z" fill="#03403F"/>
<path d="M78.8334 121.65C78.7459 122.152 78.9726 123.898 78.8334 124.033C78.3402 124.51 71.7334 124.232 71.6697 124.662V127.617C72.2186 128.162 77.5049 127.036 78.185 127.247C79.1556 127.553 78.8016 129.208 78.8374 129.999H72.2743C71.447 129.999 71.6777 132.915 71.6777 133.579H79.2351C79.1516 134.073 79.3584 135.851 79.2351 135.97C78.8652 136.332 70.1503 136.391 68.8894 136.368L68.4956 121.646H78.8374L78.8334 121.65Z" fill="#03403F"/>
<path d="M83.806 128.015C83.1059 127.864 81.6263 126.384 81.3996 125.652C79.6454 120.004 86.9762 117.995 91.1646 119.268C90.5997 123.333 89.9474 121.515 87.4018 121.635C86.4352 121.679 83.8299 122.637 84.0367 123.783C84.0765 124.001 84.9237 124.833 84.9953 124.833H91.7572C91.9959 124.833 93.3244 125.891 93.5551 126.217C96.8923 130.847 90.8225 134.343 86.646 134.232C84.4583 134.172 82.74 133.774 84.0725 131.467C84.8163 130.179 86.0732 131.515 87.3779 131.523C88.5394 131.531 91.5822 130.417 91.451 129.005C91.4311 128.786 90.6276 128.015 90.56 128.015C88.7939 128.015 85.2618 128.329 83.798 128.015H83.806Z" fill="#03403F"/>
<path d="M102.672 114.062C102.565 114.209 99.6968 115.167 99.5258 115.915C99.3945 116.488 105.202 124.527 105.858 125.835C105.846 125.99 103.551 127.546 103.293 127.617C102.728 127.772 97.9308 118.62 97.1233 117.677C94.6492 118.357 93.2133 121.48 91.9365 117.502C94.0128 116.731 99.319 112.029 100.997 111.763C102.274 111.56 103.046 113.544 102.672 114.066V114.062Z" fill="#03403F"/>
<path d="M58.9338 135.166C58.6116 135.393 56.8217 134.597 56.1734 134.765L58.552 122.844C57.9156 122.887 54.7653 122.247 54.6022 122.016C54.3795 121.702 54.7573 119.741 55.2347 119.634C55.7438 119.522 64.5025 121.384 65.4372 121.726C66.4793 122.108 66.3839 124.112 65.4571 124.403C64.4348 124.725 62.5654 123.52 61.9648 123.679C60.8988 123.961 59.4867 134.776 58.9378 135.166H58.9338Z" fill="#03403F"/>
<path d="M25.4987 90.2588C25.5902 90.9111 26.6721 92.4703 26.3061 92.9795C25.9402 93.4886 17.3327 96.7224 16.0201 97.4185C15.6302 97.9674 17.806 102.347 18.3708 103.154C18.339 103.584 15.9962 104.379 15.6342 104.117C15.3359 103.898 12.7544 97.9594 12.5914 97.3946C12.4283 96.8298 12.2135 96.3087 12.5834 95.7757L25.4987 90.2588Z" fill="#03403F"/>
<path d="M75.9144 23.269C72.2351 27.179 65.863 22.4098 68.711 17.8555C72.2192 12.2391 80.3534 18.5515 75.9144 23.269ZM74.7529 17.1474C72.6766 14.8723 72.971 19.4505 75.2541 19.4266C75.27 18.7186 75.2501 17.6924 74.7529 17.1474Z" fill="#03403F"/>
<path d="M63.6117 10.358C68.3331 9.32778 69.0252 15.859 65.4135 16.575C61.0222 17.45 59.8767 11.1734 63.6117 10.358Z" fill="#03403F"/>
</svg>
