<svg width="148" height="143" viewBox="0 0 148 143" fill="none" xmlns="http://www.w3.org/2000/svg">
<path d="M0.747559 53.2258C6.20871 54.1198 6.04158 49.2805 7.67409 45.5763C19.1134 19.6115 38.1788 3.53124 67.0704 0.413909C101.524 -3.30589 134.124 19.5415 142.808 52.8487C143.398 53.6456 146.224 53.0548 147.289 53.2258V89.3743C147.289 89.6076 143.768 89.4871 142.831 90.5521C141.89 91.621 140.056 97.8284 139.193 99.7408C113.83 156 35.0265 157.198 9.35713 101.175C8.25713 98.773 6.21649 91.7648 5.03485 90.3383C3.63944 88.6553 0.751449 89.6037 0.751449 89.3743V53.2258H0.747559ZM7.35536 53.2258H30.8714C32.2745 53.2258 33.5728 49.5293 34.2491 48.441C53.0658 18.426 93.9914 17.3726 113.243 47.4226C114.036 48.6625 115.793 53.2219 117.161 53.2219H140.677C134.175 26.2465 109.718 5.43584 82.1712 2.31074C48.3354 -1.52956 15.3625 19.9885 7.35536 53.2219V53.2258ZM34.1753 52.8332L113.846 52.6427C105.003 34.3586 85.7744 24.338 65.5779 28.0734C52.0785 30.5688 39.582 40.1657 34.1753 52.8332ZM145.73 55.1693H2.30234V87.2365C2.30234 88.1033 3.21188 87.4309 3.27407 87.4309H145.73V55.1693ZM30.8714 89.3743H7.9384C7.50695 89.3743 7.38646 90.1673 7.42921 90.6259C7.81791 94.9327 12.9253 104.545 15.3586 108.389C42.9675 151.997 106.725 151.305 133.459 107.227C136.728 101.836 139.523 95.5701 140.681 89.3782H117.943C117.694 89.3782 115.91 90.2567 115.626 90.5599C114.468 91.7881 112.629 95.8111 111.385 97.5913C93.6532 123.008 55.5457 124.166 37.3587 98.8274C35.629 96.4175 33.9654 92.4761 32.4145 90.556C32.1307 90.2023 31.2445 89.456 30.8752 89.3743H30.8714ZM113.858 89.763H34.1753C43.8226 110.418 67.3153 120.672 89.0783 112.599C99.5419 108.716 109.955 100.456 113.858 89.763Z" fill="#03403F"/>
<path d="M24.4623 101.036C25.9782 100.064 31.9874 99.1193 31.0312 102.334C30.8524 102.94 21.069 109.322 20.416 109.229C20.0195 108.821 19.11 107.301 19.4132 106.882C19.452 106.827 20.3227 106.707 20.6997 106.427C22.581 105.043 24.575 103.85 26.398 102.392C25.3019 101.716 20.4277 103.955 20.1828 103.753L24.0697 98.3186C23.409 97.7744 17.8195 102.765 16.8089 102.928C16.0393 103.053 15.258 101.537 15.1064 100.865C16.6962 100.235 24.645 94.0313 25.4302 94.0235C26.3591 94.0118 27.257 95.621 27.1171 96.4801C26.9422 97.5567 23.957 100.402 24.4584 101.036H24.4623Z" fill="#03403F"/>
<path d="M88.5926 120.855L90.882 133.072C86.929 136.166 86.6802 129.383 83.936 127.856C83.629 128.913 85.3548 134.603 85.1021 134.852C84.7717 135.167 82.8166 135.509 82.3968 134.254C81.2929 130.961 81.3435 126.433 80.1074 123.036C83.7728 119.53 84.4297 126.542 87.0378 127.856C87.411 126.802 85.6424 121.497 85.8717 121.252C85.965 121.151 88.4993 120.758 88.5926 120.859V120.855Z" fill="#03403F"/>
<path d="M47.6351 123.44C47.2076 124.147 44.4906 126.522 43.6899 126.678C40.6775 127.265 39.4065 125.702 36.8955 124.738L43.1224 113.081C48.1599 115.102 50.8535 118.099 47.6351 123.436V123.44ZM44.2885 116.583C43.962 116.809 40.662 123.125 40.5609 123.56C40.3277 124.54 41.8436 124.408 42.45 124.279C44.3934 123.86 46.7411 119.724 45.9365 117.85C45.7383 117.392 44.8015 116.229 44.2924 116.583H44.2885Z" fill="#03403F"/>
<path d="M119.525 114.414C121.488 116.311 122.02 116.645 118.946 118.099C116.672 115.3 114.305 112.486 111.918 109.765C111.424 109.205 110.099 109.248 110.997 108.393C112.917 106.566 114.06 109.664 115.607 110.745C116.31 109.905 117.76 109.306 117.173 108.039C116.345 106.247 112.692 105.847 115.619 103.367L124.733 112.89L123.381 114.243C121.624 112.999 120.232 109.396 117.931 111.522C116.551 112.801 118.615 113.528 119.525 114.41V114.414Z" fill="#03403F"/>
<path d="M123.964 95.213C123.629 96.5501 120.753 98.7035 122.296 99.889C122.545 100.079 124.123 100.764 124.321 100.628C124.667 100.383 125.6 97.382 126.479 97.518C129.627 98.0039 125.577 101.739 125.907 102.19C125.962 102.264 127.369 103.111 127.478 103.162C130.191 104.417 130.233 97.8989 132.865 101.281L129.398 107.251L118.133 100.639C118.588 99.7957 121.367 94.6494 121.674 94.4667C122.362 94.0625 123.256 95.2169 123.964 95.2092V95.213Z" fill="#03403F"/>
<path d="M32.609 120.855C28.4771 120.023 31.6333 117.582 31.4351 116.812C31.3224 116.373 29.8726 115.981 29.8415 115.079C29.169 114.706 28.0729 116.311 27.004 116.214C26.5103 116.171 25.2354 115.036 25.2432 114.834C25.2626 114.22 34.6807 108.257 35.4581 107.938C36.5581 107.488 37.7864 108.109 38.2683 109.19C38.6143 109.964 32.8266 119.016 32.609 120.855ZM33.0054 115.028L34.9489 110.753C33.3436 112.144 28.7026 114.041 33.0054 115.028Z" fill="#03403F"/>
<path d="M60.6061 120.862C60.0658 124.065 57.6948 122.301 55.557 121.632C53.7495 125.531 56.1439 124.326 58.6043 126.086C57.9902 129.398 56.0778 126.3 53.9828 126.848C51.122 131.12 56.3266 130.098 57.1078 130.961C57.3255 131.202 56.6142 132.76 56.7153 133.293L49.7227 131.346L53.6368 118.927L60.61 120.862H60.6061Z" fill="#03403F"/>
<path d="M110.017 124.695C109.598 124.45 105.917 117.461 104.739 116.551C103.472 115.572 102.555 118.693 101.042 115.98L107.448 111.176C110.138 113.57 107.662 113.065 107.028 114.246C106.364 115.483 112.109 121.55 112.249 123.058C112.319 123.82 110.74 125.11 110.017 124.691V124.695Z" fill="#03403F"/>
<path d="M76.5431 122.414V135.241C76.5431 135.377 74.2382 135.443 73.8223 135.241V122.997C73.8223 122.309 75.9951 122.348 76.5431 122.414Z" fill="#03403F"/>
<path d="M26.0091 42.3382L20.1826 40.7873C20.0076 41.588 20.5907 41.6696 21.0649 42.0389C21.8811 42.6763 27.1246 45.5993 27.1596 46.0269C27.1713 46.1551 26.0052 47.7527 25.807 48.1802C24.5631 47.1346 15.3083 41.5647 15.1567 40.9389C15.0751 40.5968 15.6154 39.6523 15.8875 39.4035C17.4656 37.9615 20.2253 39.594 22.1221 39.6134C22.3864 39.4074 19.5917 36.1152 19.4596 35.4427C19.2069 34.1756 20.0893 32.3098 21.5546 32.9706C24.6875 34.3855 28.2829 38.0781 31.4236 39.8039C31.0893 40.2548 30.7628 41.1449 30.2808 41.3936C28.9282 42.1011 23.5214 36.9314 23.09 36.9042C22.5847 36.8692 22.608 37.3629 22.8995 37.8604C23.2338 38.4279 26.3783 41.9883 26.0052 42.3343L26.0091 42.3382Z" fill="#03403F"/>
<path d="M86.6531 14.7414C87.2439 14.8386 87.1157 14.0146 87.2245 13.5753C87.4616 12.623 88.0135 8.33575 88.2079 8.1414C88.3517 7.9937 90.6877 7.95872 90.8782 8.75165C91.2319 10.2209 88.1185 18.5817 88.5888 20.9605C83.6213 21.8429 85.8757 15.4955 84.1188 12.8018C83.5786 13.6958 83.0072 19.5379 82.7584 19.7945C82.6263 19.9266 80.5545 19.9072 80.2047 19.4213C79.8354 18.9082 82.5757 8.64282 82.393 6.99087C86.933 6.04246 85.5065 11.9351 86.6531 14.7414Z" fill="#03403F"/>
<path d="M43.1233 28.7387L36.8848 17.2839C41.3664 14.2249 45.2028 13.638 47.7293 19.2663C50.0693 24.4864 47.9081 26.8652 43.1233 28.7387ZM44.2894 25.2366C48.3085 23.8218 44.235 15.7913 40.3947 17.8592L44.2894 25.2366Z" fill="#03403F"/>
<path d="M121.239 26.0097C119.661 26.4761 118.813 28.1553 117.36 28.9326C120.399 33.7408 121.694 28.0853 123.373 28.062C123.462 28.062 124.834 28.7072 124.698 29.2553C124.236 31.1482 117.974 35.933 116.963 38.2613C115.999 39.5945 114.429 37.8571 114.779 36.4889C115.047 35.4472 118.6 33.8807 117.958 32.6291C115.805 28.4312 113.434 34.2461 112.081 34.557C111.51 34.6892 110.81 33.5737 110.841 33.2005C110.9 32.5009 118.09 25.5704 118.802 24.0584C119.587 23.145 121.558 25.5549 121.235 26.0097H121.239Z" fill="#03403F"/>
<path d="M126.315 44.2665C125.721 43.8584 124.986 38.6926 121.989 42.529C121.282 43.4347 123.972 46.0389 123.96 46.4237C123.952 46.6919 122.463 47.3411 122.215 47.7764L118.141 41.7555L129.161 35.0039C129.549 35.0778 132.923 40.2046 132.865 40.5311C132.807 40.881 131.602 42.0509 131.166 41.9499C130.051 41.017 129.705 37.9385 127.874 38.646C124.547 39.9364 128.484 41.5884 128.181 43.252C128.068 43.87 126.813 44.6008 126.319 44.2626L126.315 44.2665Z" fill="#03403F"/>
<path d="M29.7053 22.9189L40.7753 30.4868C38.6802 33.8957 37.8445 30.308 35.9088 31.4313C32.8032 33.2349 37.724 34.7625 33.977 36.8925L28.1155 25.632C27.8279 24.4854 28.9629 23.6419 29.7014 22.9228L29.7053 22.9189ZM33.0558 30.6306C33.7088 31.0116 35.0731 30.0554 34.9332 29.3635L31.0696 26.7942C31.2756 27.385 32.8693 30.5218 33.0558 30.6306Z" fill="#03403F"/>
<path d="M57.1085 10.8542C56.4516 10.862 53.2488 11.9659 53.1905 12.2691C53.1516 12.4712 53.5208 14.6634 53.6141 14.745C54.1117 15.192 57.7265 13.4196 57.882 13.579C57.9636 13.6645 58.3562 15.8217 58.2746 15.9111C58.1541 16.0433 54.959 16.5447 54.8074 16.7196C54.4926 17.085 55.0678 19.9808 55.7286 20.0974C57.3262 20.3811 59.9732 17.1394 60.6067 20.9603C58.6477 21.003 54.2671 24.2681 53.1866 21.9709C51.7834 18.9857 51.3131 14.232 49.7544 11.0874C50.5007 10.6949 55.7986 8.55703 56.1406 8.58424C56.6421 8.62311 57.2601 10.2945 57.1046 10.8542H57.1085Z" fill="#03403F"/>
<path d="M105.687 29.1227C105.392 29.3287 103.336 28.1276 103.402 27.4397C103.495 26.4368 107.996 20.8863 108.762 19.5181C109.143 18.4492 107.448 17.9167 107.312 17.2131C107.215 16.7078 107.938 15.3901 108.579 15.5378C108.956 15.6272 114.624 19.8135 114.577 20.3071C114.309 23.2223 111.969 20.2138 111.133 20.7425C110.091 21.3994 106.601 27.6612 105.687 29.1227Z" fill="#03403F"/>
<path d="M76.5431 6.58203H73.8223V19.4089H76.5431V6.58203Z" fill="#03403F"/>
<path d="M143.009 57.8906V84.7105H5.02295V57.8906H143.009ZM30.8711 68.3854C29.4951 68.0433 25.2623 68.3854 23.4859 68.3854C21.3831 68.3854 21.0993 61.1401 19.599 59.8419C18.6311 59.8496 17.0375 68.3854 15.712 68.3854H6.96642C7.73215 70.1034 13.4615 72.7348 13.8891 74.0953C14.7325 76.785 11.3781 80.3882 11.829 83.1596C13.547 82.7243 18.0248 78.2038 19.2297 78.0794C20.4386 77.9589 26.646 83.7388 27.1746 83.1519C27.2563 80.7147 24.2711 76.1631 24.9124 74.0953C25.2661 72.9525 29.7905 70.8536 30.8789 69.5592C31.2093 69.1628 31.7573 68.603 30.8711 68.3854ZM124.935 68.3854C122.502 68.7896 119.128 68.09 116.578 68.3854C116.345 69.2949 116.792 69.0345 117.072 69.2755C119.101 71.0168 121.526 72.4045 123.598 74.0953L120.854 83.1519C121.464 83.7621 127.605 78.3748 128.822 78.1066L136.203 83.1596C136.203 80.1239 134.303 77.1854 134.046 74.0953C136.036 72.4433 138.501 71.2267 140.413 69.4815C140.794 69.1355 141.241 69.1355 141.066 68.3854H133.098C131.065 68.3854 129.704 59.9857 129.207 59.8302C128.507 59.6164 128.266 60.9108 128.06 61.3966C127.415 62.9436 126.365 68.1444 124.935 68.3815V68.3854ZM78.0974 66.4419C78.354 63.5578 77.907 60.3472 74.4087 60.3044C67.696 60.2189 63.7896 67.1571 69.5734 71.6659C70.8872 72.6882 75.8858 74.3013 73.3398 76.8472C71.3769 78.814 67.284 75.2847 66.8292 75.7744C65.7875 81.29 69.3363 83.3579 74.3038 81.8886C79.0342 80.4893 81.343 73.6794 77.1257 70.3327C76.2706 69.6525 69.997 67.056 73.1416 65.5712C75.2366 64.58 76.1268 66.4147 78.0936 66.4458L78.0974 66.4419ZM39.228 61.0002H34.1711C34.5637 66.1659 33.4715 72.4239 34.21 77.4847C35.139 83.8554 46.6171 83.5639 47.3556 77.4847C47.7832 73.9515 47.5266 70.1345 47.3712 66.6518C47.2895 64.7783 47.4606 62.8698 47.3906 60.9963H42.3337V76.7423C42.3337 77.7646 39.2241 77.7646 39.2241 76.7423V61.0002H39.228ZM108.711 61.4822C108.155 60.8253 103.681 60.526 103.184 61.7931L98.3057 81.601C99.3318 81.3872 102.702 81.9275 103.304 81.5466C104.187 80.9946 102.647 77.6713 105.885 77.6713C109.123 77.6713 107.584 80.9907 108.466 81.5466C108.66 81.6709 112.446 81.8303 113.06 81.8264C113.511 81.8264 113.601 81.8225 113.834 81.3677L108.707 61.4822H108.711Z" fill="#03403F"/>
<path d="M106.861 73.434H104.921L105.703 68.7735C106.282 68.6763 106.185 69.5004 106.282 69.9318C106.542 71.0746 106.667 72.2795 106.861 73.434Z" fill="#03403F"/>
</svg>
