<svg width="184" height="68" viewBox="0 0 184 68" fill="none" xmlns="http://www.w3.org/2000/svg">
<path d="M184 6.91147C184 24.9705 184 42.9552 184 61.0142C184 64.5071 181.847 67.1825 178.579 67.8514C178.134 67.9257 177.614 68 177.094 68L6.90557 68C3.48991 67.9257 0.816788 65.7705 0.148507 62.5005C-2.63128e-07 61.9803 -2.85868e-07 61.4601 -3.08607e-07 60.9399L-2.67026e-06 6.91148C-2.82944e-06 3.26995 2.30185 0.4459 5.71751 -2.4992e-07C6.16303 -2.69395e-07 6.68281 -2.92115e-07 7.20258 -3.14835e-07C35.4931 -1.55145e-06 63.7094 -2.78483e-06 92 -4.02145e-06L177.02 -7.7378e-06C180.659 -7.89684e-06 183.332 2.2295 183.926 5.7224C183.926 6.1683 183.926 6.53989 183.926 6.98579L184 6.91147Z" fill="white"/>
<path d="M47.2998 7.06095C34.0084 7.06095 20.7913 7.06095 7.49992 7.06095C7.0544 7.06095 6.90589 7.20959 6.98015 7.65549C6.98015 11.52 6.98015 15.4588 6.98015 19.3232C6.98015 24.6741 6.98015 30.0992 6.98015 35.45C6.98015 35.9702 7.12865 36.1189 7.57417 36.0446C7.72268 36.0446 7.79694 36.0446 7.94544 36.0446L47.4483 36.0446L47.4483 7.06095L47.2998 7.06095ZM43.8098 9.66204C44.3296 9.66204 44.7009 9.43909 44.8494 8.91887C44.8494 8.69592 45.0722 8.69592 45.1464 8.91887C45.2949 9.43909 45.6662 9.66204 46.186 9.66204C46.4087 9.66204 46.483 9.81067 46.2602 9.95931C45.8147 10.2566 45.7404 10.6282 45.8147 11.1484C45.8889 11.3713 45.8147 11.52 45.5177 11.3713C45.0722 11.0741 44.7009 11.0741 44.2554 11.3713C44.1069 11.52 43.9584 11.52 43.9584 11.1484C44.1811 10.7025 43.9584 10.3309 43.5871 10.0336C43.3643 9.88499 43.4386 9.73636 43.6613 9.73636L43.8098 9.66204ZM42.5475 26.1604C41.8793 25.6402 41.2852 25.5659 40.7655 26.0118C40.6169 25.8631 40.6912 25.7145 40.7655 25.5659C40.914 25.1943 40.7655 24.8227 40.4684 24.5997C40.3942 24.5997 40.2457 24.4511 40.2457 24.3025C40.2457 24.1538 40.4684 24.2282 40.5427 24.2282C40.9882 24.2282 41.2852 24.0052 41.4337 23.6336C41.4337 23.5593 41.508 23.4107 41.6565 23.4107C41.805 23.4107 41.805 23.5593 41.8793 23.6336C42.0278 24.0795 42.3248 24.3025 42.7703 24.3025C42.9188 24.3025 43.2158 24.3025 42.9931 24.5254C42.4733 24.9713 42.399 25.4172 42.6218 26.2347L42.5475 26.1604ZM40.3942 12.5604C40.914 12.5604 41.2852 12.3374 41.4337 11.8172C41.4337 11.5943 41.6565 11.5943 41.7307 11.8172C41.8793 12.3374 42.2505 12.5604 42.7703 12.5604C42.9931 12.5604 42.9931 12.709 42.8446 12.8577C42.399 13.1549 42.2505 13.5265 42.399 14.0467C42.399 14.2697 42.399 14.4183 42.102 14.2697C41.6565 13.9724 41.2852 13.9724 40.8397 14.2697C40.6912 14.4183 40.5427 14.344 40.5427 13.9724C40.7655 13.5265 40.5427 13.1549 40.0972 12.7834C39.8744 12.6347 40.0229 12.4861 40.2457 12.4861L40.3942 12.5604ZM36.533 9.73636C36.533 9.73636 36.6815 9.66204 36.83 9.66204C37.2755 9.66204 37.6468 9.43909 37.7953 8.99319C37.7953 8.91887 37.7953 8.77024 38.0181 8.77024C38.0923 8.77024 38.1666 8.91887 38.1666 8.99319C38.3151 9.43909 38.6121 9.66204 39.0576 9.66204C39.1319 9.66204 39.2804 9.66204 39.3546 9.73636C39.3546 9.88499 39.3546 9.95931 39.2061 10.0336C38.7606 10.3309 38.7606 10.7025 38.8349 11.1484C38.8349 11.297 38.8349 11.52 38.6121 11.3713C38.0923 10.9254 37.5726 11.0741 37.127 11.3713C36.9785 11.2227 36.9785 11.1484 37.0528 11.0741C37.2013 10.6282 37.0528 10.2566 36.6815 9.95931C36.6073 9.95931 36.533 9.81068 36.533 9.73636ZM33.3401 12.5604C33.7856 12.5604 34.1569 12.4118 34.3054 11.8915C34.3797 11.5943 34.6024 11.5943 34.6767 11.8915C34.8252 12.4118 35.1222 12.5604 35.642 12.5604C35.939 12.5604 36.0132 12.709 35.7905 12.8577C35.345 13.1549 35.2707 13.5265 35.4192 14.0467C35.4935 14.344 35.345 14.344 35.1222 14.2697C34.7509 13.9724 34.3054 13.9724 33.9341 14.2697C33.7114 14.4183 33.5629 14.344 33.6371 13.9724C33.8599 13.5265 33.6371 13.2293 33.2659 12.8577C33.0431 12.709 33.0431 12.5604 33.4144 12.5604L33.3401 12.5604ZM29.5532 9.66204C30.2215 9.66204 30.5927 9.29046 30.8155 8.6216C30.964 8.84455 31.0383 8.91887 31.0383 8.99319C31.1868 9.43909 31.4838 9.66204 31.9293 9.66204C32.0036 9.66204 32.2263 9.66204 32.2263 9.81067C32.2263 9.95931 32.1521 10.0336 32.0778 10.1079C31.6323 10.4052 31.6323 10.7768 31.7808 11.2227C31.855 11.52 31.7808 11.5943 31.4838 11.4456C31.0383 11.1484 30.667 11.1484 30.2215 11.4456C30.073 11.5943 29.8502 11.52 29.9245 11.297C30.073 10.7768 29.9245 10.4052 29.5532 10.1079C29.4789 10.0336 29.3304 9.81067 29.5532 9.81067L29.5532 9.66204ZM22.5734 9.66204C23.0931 9.66204 23.3902 9.43909 23.6129 8.91887C23.6872 8.6216 23.8357 8.69592 23.9842 8.91887C24.1327 9.43909 24.504 9.66204 25.0237 9.66204C25.2465 9.66204 25.3207 9.81067 25.098 9.95931C24.6525 10.2566 24.504 10.6282 24.7267 11.1484C24.801 11.4456 24.6525 11.4456 24.4297 11.297C23.9842 10.9997 23.6129 10.9997 23.1674 11.297C22.8704 11.4456 22.8704 11.3713 22.8704 10.9997C23.0931 10.5538 22.8704 10.1823 22.4991 9.88499C22.2764 9.73636 22.3506 9.58773 22.5734 9.58773L22.5734 9.66204ZM19.232 12.5604C19.6775 12.5604 19.9745 12.3375 20.123 11.8915C20.1973 11.5943 20.42 11.5943 20.4943 11.8915C20.6428 12.4118 21.014 12.5604 21.4596 12.5604C21.7566 12.5604 21.7566 12.709 21.5338 12.8577C21.0883 13.1549 20.9398 13.5265 21.1625 14.0467C21.1625 14.1954 21.1625 14.4926 21.014 14.2697C20.4943 13.8981 19.9745 13.9724 19.3805 14.4183C19.3805 14.1954 19.3805 14.1211 19.3805 14.0467C19.529 13.6008 19.4547 13.2293 19.0835 12.932C19.0092 12.932 18.8607 12.7834 18.8607 12.6347C18.8607 12.4861 19.0835 12.5604 19.1577 12.4861L19.232 12.5604ZM15.3708 9.66204C16.0391 9.66204 16.4103 9.29046 16.6331 8.54729C16.7816 8.77024 16.8559 8.91887 16.9301 9.06751C17.0786 9.43909 17.3014 9.66204 17.7469 9.66204C17.8954 9.66204 18.0439 9.66204 18.1182 9.81067C18.1182 9.95931 18.0439 10.0336 17.8954 10.1079C17.5241 10.4052 17.4499 10.7025 17.5984 11.1484C17.5984 11.2227 17.6726 11.3713 17.5984 11.4456C17.5984 11.4456 17.3756 11.4456 17.3014 11.3713C16.9301 11.0741 16.5588 11.0741 16.1876 11.3713C15.9648 11.52 15.7421 11.52 15.8906 11.1484C16.0391 10.7025 15.8906 10.3309 15.5193 10.0336C15.445 9.95931 15.2223 9.73636 15.5193 9.73636L15.3708 9.66204ZM14.1827 26.0861C13.5144 25.6402 12.9947 25.5659 12.4749 26.0861C12.3264 25.9375 12.4006 25.8631 12.4006 25.7145C12.5492 25.2686 12.4749 24.897 12.1036 24.6741C12.0294 24.6741 11.8809 24.5254 11.8809 24.3768C11.8809 24.2282 12.1036 24.2282 12.1779 24.2282C12.6234 24.2282 12.9204 24.0052 13.0689 23.5593C13.0689 23.485 13.1432 23.3364 13.2917 23.3364C13.3659 23.3364 13.4402 23.485 13.4402 23.5593C13.5887 24.0052 13.8857 24.2282 14.4055 24.2282C14.4797 24.2282 14.851 24.2282 14.6282 24.4511C14.1085 24.897 13.96 25.3429 14.1827 26.0118L14.1827 26.0861ZM11.8809 12.6347C11.8809 12.6347 12.1036 12.5604 12.1779 12.5604C12.6234 12.5604 12.9204 12.4118 13.0689 11.9659C13.0689 11.8915 13.0689 11.7429 13.2917 11.6686C13.4402 11.6686 13.5144 11.8172 13.5144 11.8915C13.663 12.3375 13.96 12.5604 14.4797 12.5604C14.6282 12.5604 14.851 12.6347 14.6282 12.7834C14.0342 13.1549 14.0342 13.6752 14.1827 14.344C13.5887 13.8238 12.9947 13.9724 12.4749 14.344C12.4006 14.1954 12.4006 14.1211 12.4749 13.9724C12.6234 13.5265 12.4749 13.1549 12.1779 12.8577C12.1036 12.8577 11.9551 12.709 12.0294 12.5604L11.8809 12.6347ZM12.1036 18.4314C12.5492 18.4314 12.9204 18.2085 13.0689 17.7626C13.0689 17.6883 13.0689 17.5396 13.2917 17.5396C13.2917 17.5396 13.4402 17.6883 13.4402 17.7626C13.5887 18.2828 13.96 18.4314 14.4055 18.4314C14.554 18.4314 14.7768 18.5058 14.554 18.6544C14.0342 19.026 13.96 19.5462 14.1827 20.0664C14.0342 20.215 13.96 20.1407 13.8857 20.0664C13.4402 19.7691 13.0689 19.6948 12.6234 20.0664C12.4749 20.215 12.2521 20.215 12.3264 19.9178C12.4749 19.3976 12.3264 18.9517 11.8809 18.6544C11.8809 18.6544 11.8809 18.5801 11.8066 18.5058C11.8809 18.3571 12.0294 18.4314 12.1036 18.3571L12.1036 18.4314ZM8.46521 9.66204C8.91074 9.66204 9.20775 9.43909 9.35626 8.99319C9.35626 8.91887 9.35626 8.77024 9.57902 8.77024C9.72752 8.77024 9.72752 8.91887 9.80178 8.99319C9.95028 9.36478 10.173 9.66204 10.6186 9.66204C10.7671 9.66204 10.9156 9.66204 10.9898 9.81067C10.9898 9.95931 10.8413 10.0336 10.7671 10.1079C10.6186 10.3309 10.3216 10.4052 10.3958 10.7025C10.3958 10.9254 10.5443 11.2227 10.3958 11.4456C10.2473 11.4456 10.0988 11.4456 10.0245 11.297C9.65327 11.0741 9.35626 11.0741 8.98499 11.297C8.91074 11.3713 8.76223 11.52 8.61372 11.3713C8.53947 11.3713 8.61372 11.1484 8.61372 11.0741C8.76223 10.6282 8.61372 10.3309 8.24245 10.0336C8.1682 10.0336 8.09395 9.88499 8.09395 9.81067C8.09395 9.66204 8.31671 9.66204 8.39096 9.66204L8.46521 9.66204ZM10.4701 22.7418C10.4701 22.7418 10.5443 22.9648 10.4701 23.0391C10.3958 23.0391 10.2473 23.0391 10.173 23.0391C9.80178 22.6675 9.35626 22.7418 8.98499 23.0391C8.91074 23.0391 8.68798 23.1877 8.68798 23.0391C8.83648 22.3702 8.68798 21.9243 8.09395 21.4784C8.91074 21.4784 9.35626 21.1069 9.57902 20.3637C9.65327 20.5123 9.72752 20.661 9.80178 20.7353C9.95028 21.1812 10.2473 21.4041 10.6928 21.4041C10.7671 21.4041 10.9156 21.4041 10.9898 21.4784C10.9898 21.6271 10.9898 21.7014 10.8413 21.7757C10.4701 22.073 10.3216 22.3702 10.4701 22.8161L10.4701 22.7418ZM10.8413 33.3691C10.4701 33.6664 10.3216 33.9637 10.4701 34.4839C10.5443 34.7812 10.4701 34.9298 10.173 34.7069C9.72752 34.4096 9.35626 34.4096 8.98499 34.7069C8.76223 34.8555 8.61372 34.7812 8.68798 34.4839C8.83648 33.9637 8.68798 33.5921 8.31671 33.2948C8.24246 33.2205 8.09395 32.9976 8.31671 32.9976C8.98499 32.9976 9.35626 32.626 9.50476 32.0314C9.72752 32.1058 9.72752 32.2544 9.80178 32.3287C9.95028 32.7746 10.2473 32.9976 10.6928 32.9976C10.7671 32.9976 10.9156 32.9976 10.9898 33.1462C10.9898 33.2948 10.9898 33.3691 10.8413 33.3691ZM10.8413 27.5724C10.4701 27.8697 10.3958 28.167 10.4701 28.6129C10.4701 28.6872 10.5443 29.0588 10.3216 28.9101C9.72752 28.5385 9.282 28.6129 8.76223 29.0588C8.76223 28.8358 8.76223 28.7615 8.76223 28.6872C8.91074 28.167 8.83648 27.7954 8.39096 27.4981C8.31671 27.4981 8.09395 27.2008 8.39096 27.2008C9.05924 27.2008 9.43051 26.8293 9.57902 26.2347C9.80178 26.2347 9.80178 26.4577 9.87603 26.532C10.0245 26.9779 10.3216 27.1265 10.7671 27.1265C10.8413 27.1265 11.0641 27.1265 11.0641 27.2752C11.0641 27.4238 10.9898 27.4981 10.9156 27.5724L10.8413 27.5724ZM10.8413 15.9047C10.8413 15.9047 10.3216 16.4992 10.4701 16.9451C10.4701 17.0194 10.5443 17.1681 10.4701 17.2424C10.3958 17.2424 10.2473 17.2424 10.173 17.2424C9.80178 16.9451 9.43051 16.9451 8.98499 17.2424C8.83648 17.3167 8.53947 17.391 8.68797 17.0937C8.91074 16.4249 8.61372 16.0533 8.09395 15.6074C8.83648 15.6074 9.43051 15.3844 9.50476 14.4926C9.50476 14.4926 9.57902 14.4926 9.65327 14.567C9.65327 14.6413 9.80178 14.7156 9.80178 14.7899C9.95028 15.2358 10.2473 15.4588 10.6928 15.4588C10.7671 15.4588 10.9156 15.4588 10.9898 15.5331C10.9898 15.6817 10.9898 15.756 10.8413 15.8303L10.8413 15.9047ZM14.6282 30.3222C14.1085 30.7681 13.96 31.214 14.257 32.0314C13.5887 31.5112 12.9947 31.4369 12.4006 32.0314C12.4006 31.3378 12.2274 30.7433 11.8809 30.2478C11.8809 30.2478 12.1036 30.1735 12.2521 30.1735C12.6977 30.1735 12.9947 30.0249 13.1432 29.579C13.1432 29.5047 13.1432 29.356 13.3659 29.2817C13.5144 29.2817 13.5887 29.4303 13.5887 29.5047C13.7372 29.9506 14.0342 30.1735 14.554 30.1735C14.6283 30.1735 14.9995 30.1735 14.7768 30.3965L14.6282 30.3222ZM17.8954 33.3691C17.5241 33.6664 17.4499 33.9637 17.5241 34.4096C17.5241 34.4839 17.5984 34.6325 17.5241 34.7069C17.4499 34.7069 17.3014 34.7069 17.2271 34.6325C16.8559 34.3353 16.4846 34.3353 16.1133 34.6325C16.0391 34.7069 15.6678 34.8555 15.8163 34.5582C16.0391 33.8894 15.7421 33.5178 15.2223 33.0719C15.9648 33.0719 16.4846 32.7003 16.7073 31.9571C16.8559 32.1801 16.9301 32.2544 16.9301 32.403C17.0786 32.8489 17.3756 32.9976 17.8211 32.9976C17.8954 32.9976 18.0439 32.9976 18.1182 33.0719C18.1182 33.2205 18.0439 33.2948 17.9697 33.3691L17.8954 33.3691ZM17.5984 28.6129C17.5984 28.6129 17.5984 28.8358 17.5984 28.9101C17.5241 28.9844 17.3756 28.9101 17.3014 28.9101C16.9301 28.6872 16.6331 28.6129 16.2618 28.9101C16.1876 28.9844 16.0391 29.1331 15.8906 28.9844C15.8163 28.9101 15.8906 28.7615 15.8906 28.6129C15.8906 28.4642 15.8906 28.3899 15.8906 28.2413C15.8906 27.944 15.6678 27.7954 15.5193 27.6467C15.5193 27.5724 15.2965 27.4981 15.3708 27.3495C15.3708 27.2008 15.5935 27.2008 15.6678 27.2008C16.1876 27.2008 16.4103 26.9779 16.5588 26.532C16.6331 26.2347 16.8559 26.2347 16.9301 26.532C17.0786 26.9779 17.3756 27.2008 17.8954 27.2008C17.9697 27.2008 18.1182 27.2008 18.1182 27.3495C18.1182 27.4238 18.0439 27.5724 17.9697 27.5724C17.5984 27.8697 17.4499 28.167 17.5984 28.6872L17.5984 28.6129ZM17.8954 21.7014C17.5241 21.9987 17.3756 22.2959 17.5241 22.7418C17.5241 22.8161 17.5984 22.9648 17.5241 23.0391C17.4499 23.0391 17.3014 23.0391 17.2271 22.9648C16.8559 22.6675 16.4846 22.6675 16.1133 22.9648C16.0391 22.9648 15.6678 23.1877 15.8163 22.8905C15.9648 22.2216 15.8163 21.85 15.2223 21.4784C15.5935 21.2555 15.9648 21.4041 16.1876 21.1812C16.4103 20.9582 16.4846 20.661 16.6331 20.438C16.7816 20.438 16.8559 20.5866 16.8559 20.6609C17.0044 21.1069 17.3014 21.4041 17.8211 21.4041C17.8954 21.4041 18.0439 21.4041 18.1182 21.4784C18.1182 21.6271 18.1182 21.7014 17.9697 21.7757L17.8954 21.7014ZM17.9697 15.8303C17.5241 16.1276 17.4499 16.4992 17.5984 16.9451C17.5984 17.0937 17.5984 17.3167 17.3756 17.1681C16.8559 16.7965 16.3361 16.8708 15.742 17.1681C15.9648 16.4249 15.7421 15.9047 15.148 15.4588C15.9648 15.4588 16.4103 15.1615 16.5588 14.4926C16.7816 14.4926 16.7816 14.6413 16.8559 14.7156C17.0044 15.1615 17.3014 15.3844 17.7469 15.3844C17.8211 15.3844 17.9697 15.3844 18.0439 15.4588C18.0439 15.6074 18.0439 15.6817 17.8954 15.6817L17.9697 15.8303ZM21.6081 30.3965C21.1626 30.6937 21.0883 31.1396 21.2368 31.5855C21.2368 31.7342 21.2368 31.8828 21.014 31.8085C20.4943 31.3626 19.9745 31.5112 19.3805 31.8828C19.3805 31.6599 19.3805 31.5855 19.3805 31.5855C19.529 31.1396 19.4547 30.6937 19.0092 30.3965C18.9349 30.3965 18.8607 30.2478 18.8607 30.1735C18.8607 30.0249 19.0092 30.0992 19.0835 30.0992C19.6032 30.0992 19.9002 29.8763 20.0488 29.4304C20.0488 29.356 20.0487 29.2074 20.1973 29.2074C20.3458 29.2074 20.3458 29.356 20.42 29.4304C20.5685 29.9506 20.8655 30.0992 21.3853 30.1735C21.6081 30.1735 21.7566 30.3222 21.5338 30.4708L21.6081 30.3965ZM21.6823 24.5254C21.1626 24.897 21.0883 25.4172 21.3111 26.1604C21.0883 26.0861 20.9398 26.0118 20.8655 25.9375C20.4943 25.6402 20.1973 25.6402 19.826 25.9375C19.7517 25.9375 19.6032 26.1604 19.4547 26.0118C19.3805 25.9375 19.4547 25.7888 19.4547 25.6402C19.6032 25.1943 19.4547 24.897 19.1577 24.5997C19.0835 24.5997 18.9349 24.4511 18.9349 24.3025C18.9349 24.1538 19.0835 24.1538 19.232 24.1538C19.6775 24.1538 19.9745 23.9309 20.1973 23.485C20.2715 23.1877 20.4943 23.1877 20.5685 23.485C20.717 24.0052 21.014 24.1538 21.5338 24.1538C21.6823 24.1538 21.9793 24.1538 21.7566 24.3768L21.6823 24.5254ZM21.2368 20.215C20.6428 19.7691 20.0487 19.7691 19.3805 20.215C19.6032 19.4719 19.4547 18.9517 18.8607 18.5801C18.8607 18.3571 19.0835 18.3571 19.1577 18.3571C19.6032 18.3571 19.9745 18.1342 20.123 17.6883C20.123 17.5396 20.3458 17.2424 20.42 17.5396C20.6428 18.2085 21.0883 18.4314 21.7566 18.4314C21.1626 18.8773 20.9398 19.3976 21.1626 20.1407L21.2368 20.215ZM24.6525 22.8161C24.6525 22.8161 24.6525 23.262 24.504 23.0391C23.9099 22.6675 23.3902 22.6675 22.8704 23.1877C22.8704 22.4941 22.6971 21.8748 22.3506 21.3298C23.0931 21.3298 23.6129 21.1068 23.7614 20.3637C23.9842 20.3637 23.9842 20.438 23.9842 20.5866C24.1327 21.0325 24.4297 21.3298 24.9495 21.3298C25.0237 21.3298 25.1722 21.3298 25.2465 21.4041C25.2465 21.5528 25.2465 21.6271 25.098 21.7014C24.7267 21.9987 24.5782 22.3702 24.7267 22.8161L24.6525 22.8161ZM24.9495 33.4435C24.9495 33.4435 24.504 34.038 24.6525 34.4096C24.6525 34.4839 24.7267 34.6325 24.6525 34.7069C24.5782 34.7812 24.4297 34.7069 24.3554 34.6325C23.9842 34.3353 23.6129 34.3353 23.2416 34.6325C23.1674 34.6325 23.0189 34.7812 22.9446 34.6325C22.9446 34.6325 22.9446 34.4096 22.9446 34.3353C23.1674 33.815 22.9446 33.5178 22.5734 33.2205C22.4991 33.1462 22.2764 32.9976 22.5734 32.9232C23.3902 32.7003 23.3902 32.626 23.8357 31.9571C23.9099 32.1058 23.9842 32.1801 24.0584 32.3287C24.2069 32.7003 24.4297 32.9976 24.8752 32.9976C25.0237 32.9976 25.1722 32.9976 25.2465 33.1462C25.2465 33.2948 25.098 33.3691 25.0237 33.4435L24.9495 33.4435ZM25.0237 27.4981C24.5782 27.7954 24.504 28.167 24.6525 28.6129C24.7267 28.9101 24.6525 28.9844 24.3554 28.8358C23.9099 28.5385 23.5387 28.5385 23.0931 28.8358C22.7961 28.9844 22.7219 28.8358 22.7961 28.6129C22.9446 28.167 22.7961 27.7954 22.4249 27.4981C22.3506 27.4981 22.1278 27.2752 22.4249 27.2008C22.7219 27.1265 23.0189 27.2008 23.2416 26.9779C23.3902 26.7549 23.5387 26.532 23.6872 26.1604C23.8357 26.3834 23.9099 26.4577 23.9099 26.6063C24.0584 27.0522 24.3554 27.1265 24.7267 27.1265C24.801 27.1265 25.0237 27.1265 25.0237 27.2752C25.0237 27.3495 25.0237 27.4981 24.8752 27.4981L25.0237 27.4981ZM25.0237 15.8303C24.5782 16.1276 24.4297 16.4992 24.6525 17.0194C24.6525 17.0937 24.6525 17.391 24.504 17.2424C23.9099 16.8708 23.3902 16.9451 22.8704 17.2424C23.0931 16.4992 22.9446 15.979 22.3506 15.6074C22.4991 15.4588 22.5734 15.4588 22.7219 15.4588C23.1674 15.4588 23.5387 15.3101 23.6872 14.7899C23.6872 14.7156 23.6872 14.567 23.9099 14.567C24.0584 14.567 24.0584 14.7156 24.0584 14.7899C24.2069 15.3101 24.504 15.4588 25.0237 15.4588C25.2465 15.4588 25.395 15.6074 25.1722 15.756L25.0237 15.8303ZM26.3603 12.5604C26.8058 12.5604 27.1028 12.4118 27.2513 11.9659C27.2513 11.8915 27.2513 11.7429 27.4741 11.7429C27.6226 11.7429 27.6969 11.8915 27.6969 11.9659C27.8454 12.4118 28.1424 12.6347 28.5879 12.6347C28.7364 12.6347 29.0334 12.6347 28.8107 12.8577C28.2909 13.3036 28.2166 13.7495 28.4394 14.4183C28.2909 14.4183 28.2166 14.4183 28.1424 14.344C27.6969 14.0467 27.3256 13.9724 26.8801 14.344C26.8058 14.344 26.5088 14.567 26.583 14.2697C26.8058 13.6008 26.5831 13.1549 25.9148 12.709C26.2118 12.709 26.286 12.6347 26.4345 12.6347L26.3603 12.5604ZM27.2513 17.6883C27.2513 17.6883 27.4741 17.4653 27.5483 17.6883C27.6969 18.2085 28.0681 18.5058 28.5879 18.5058C28.7364 18.5058 28.8849 18.6544 28.7364 18.7287C28.2166 19.1003 28.0681 19.6205 28.3651 20.2894C27.6969 19.9178 27.1771 19.7691 26.5088 20.2894C26.7316 19.5462 26.5088 18.9517 25.989 18.5058C26.6573 18.5058 27.1771 18.2828 27.3256 17.6883L27.2513 17.6883ZM28.2909 25.7145C28.2909 25.7145 28.2909 26.0861 28.1424 25.9375C27.6226 25.5659 27.1028 25.6402 26.583 25.9375C26.4345 25.7888 26.5088 25.6402 26.583 25.5659C26.7316 25.12 26.583 24.8227 26.286 24.5254C26.2118 24.5254 26.0633 24.3768 26.1375 24.2282C26.1375 24.0795 26.3603 24.0795 26.4345 24.0795C26.8801 24.0795 27.1771 23.8566 27.3256 23.4107C27.3256 23.3364 27.3998 23.1134 27.5483 23.1877C27.6226 23.1877 27.6969 23.3364 27.6969 23.4107C27.8454 23.8566 28.1424 24.0795 28.6621 24.0795C28.9592 24.0795 29.0334 24.2282 28.7364 24.4511C28.2909 24.7484 28.2166 25.12 28.3651 25.5659L28.2909 25.7145ZM28.7364 30.3222C28.2166 30.7681 28.1424 31.214 28.2909 31.8085C28.0681 31.8828 27.9939 31.8085 27.8454 31.7342C27.4741 31.5112 27.1771 31.4369 26.8058 31.7342C26.7316 31.7342 26.583 31.9571 26.4345 31.8085C26.3603 31.7342 26.4345 31.5855 26.4345 31.5112C26.7316 30.8424 26.1375 30.6194 25.8405 30.2478C25.9148 30.0992 26.0633 30.0992 26.1375 30.0992C26.583 30.0992 26.8801 29.9506 27.0286 29.5047C27.0286 29.4303 27.0286 29.2817 27.2513 29.2817C27.3998 29.2817 27.4741 29.4303 27.4741 29.5047C27.6226 29.9506 27.9196 30.1735 28.4394 30.1735C28.5879 30.1735 28.8849 30.1735 28.6621 30.3965L28.7364 30.3222ZM32.0778 33.3691C31.6323 33.6664 31.558 34.038 31.7065 34.4839C31.7065 34.5582 31.7065 34.7069 31.7065 34.7069C31.6323 34.7812 31.4838 34.7069 31.4095 34.7069C30.964 34.4096 30.5927 34.4096 30.1472 34.7069C30.073 34.7812 29.7759 34.8555 29.8502 34.6325C30.073 33.9637 29.7759 33.5178 29.2562 33.0719C29.9987 33.0719 30.4442 32.7003 30.667 32.1058C30.8897 32.1058 30.8897 32.3287 30.964 32.403C31.1125 32.8489 31.4095 33.0719 31.855 33.0719C31.9293 33.0719 32.0778 33.0719 32.1521 33.1462C32.1521 33.2948 32.1521 33.3691 32.0035 33.3691L32.0778 33.3691ZM31.7065 28.6872C31.7065 28.6872 31.7065 29.0588 31.4095 28.9101C30.964 28.6129 30.5927 28.6129 30.1472 28.9101C29.9245 29.0588 29.8502 28.9844 29.8502 28.6129C30.073 28.167 29.8502 27.8697 29.4789 27.4981C29.2562 27.3495 29.2562 27.1265 29.6274 27.1265C30.1472 27.1265 30.4442 26.9036 30.5927 26.4577C30.7412 26.1604 30.8897 26.2347 30.964 26.4577C31.1125 26.9036 31.4095 27.1265 31.855 27.1265C31.9293 27.1265 32.1521 27.1265 32.1521 27.2752C32.1521 27.2752 32.0778 27.4981 32.0035 27.4981C31.558 27.7954 31.4838 28.167 31.6323 28.6129L31.7065 28.6872ZM32.1521 21.6271C31.558 21.9987 31.6323 22.5932 31.7808 23.1877C31.6323 23.1877 31.558 23.1877 31.4838 23.1134C31.0383 22.8161 30.667 22.7418 30.2215 23.1134C30.1472 23.1134 29.9245 23.3364 29.9245 23.1134C29.9245 22.8161 30.1472 22.5189 29.9245 22.2216C29.7759 21.9987 29.5532 21.7757 29.2562 21.4784C30.073 21.4784 30.5927 21.1812 30.7412 20.5123C30.8897 20.5123 30.964 20.5123 30.964 20.6609C31.1125 21.1812 31.4095 21.4041 32.0035 21.4784C32.1521 21.4784 32.3748 21.5528 32.1521 21.7014L32.1521 21.6271ZM32.0778 15.8303C31.6323 16.1276 31.558 16.5735 31.7065 17.0937C31.7065 17.2424 31.7065 17.391 31.4838 17.2424C30.964 16.7965 30.4442 16.9451 29.8502 17.2424C30.073 16.4992 29.8502 15.979 29.3304 15.6074C29.4047 15.4588 29.5532 15.4588 29.6274 15.4588C30.073 15.4588 30.4442 15.3101 30.5927 14.7899C30.5927 14.7156 30.5927 14.567 30.8155 14.567C30.964 14.567 30.964 14.7156 30.964 14.7899C31.1125 15.2358 31.4095 15.4588 31.9293 15.4588C32.1521 15.4588 32.3006 15.6074 32.0778 15.756L32.0778 15.8303ZM35.7162 30.4708C35.2707 30.7681 35.1964 31.1396 35.345 31.5855C35.345 31.8085 35.345 31.9571 35.1222 31.8085C34.6767 31.5112 34.2312 31.5112 33.7856 31.8085C33.7114 31.8828 33.4886 31.8085 33.5629 31.6599C33.7856 30.991 33.5629 30.5451 32.9688 30.1735C33.1174 30.0249 33.2659 30.0249 33.4144 30.0249C33.8599 30.0249 34.1569 29.7276 34.3054 29.356C34.3054 29.2817 34.3054 29.1331 34.5282 29.1331C34.6767 29.1331 34.6767 29.2817 34.6767 29.356C34.8252 29.8762 35.1222 30.0992 35.642 30.0992C35.7162 30.0992 35.8647 30.0992 35.8647 30.1735C35.8647 30.2478 35.8647 30.3965 35.7162 30.3965L35.7162 30.4708ZM35.642 24.6741C35.642 24.6741 35.1964 25.2686 35.345 25.6402C35.345 25.7888 35.4935 25.9375 35.345 26.0118C35.2707 26.0861 35.1222 26.0118 35.0479 25.9375C34.5282 25.4915 34.0826 25.9375 33.6371 26.0861C33.6371 25.8631 33.6371 25.7888 33.6371 25.7145C33.7856 25.2686 33.6371 24.9713 33.3401 24.6741C33.2659 24.6741 33.1174 24.5254 33.1916 24.3768C33.1916 24.2282 33.4144 24.2282 33.4886 24.2282C33.9341 24.2282 34.2312 24.0052 34.3797 23.5593C34.3797 23.485 34.6024 23.1134 34.6767 23.4107C34.8994 24.0795 35.345 24.3025 35.939 24.2282C35.939 24.4511 35.7905 24.5254 35.7162 24.5997L35.642 24.6741ZM35.7905 18.6544C35.2707 19.026 35.1964 19.5462 35.345 20.215C34.7509 19.7691 34.1569 19.7691 33.4886 20.215C33.7856 19.4719 33.4886 18.9517 32.8946 18.5058C33.1174 18.5058 33.1916 18.4314 33.2659 18.4314C33.7856 18.4314 34.1569 18.2085 34.3054 17.7626C34.3054 17.6883 34.3054 17.5396 34.5282 17.5396C34.6767 17.5396 34.6767 17.6883 34.6767 17.7626C34.8252 18.2828 35.1222 18.4314 35.642 18.4314C35.7905 18.4314 36.0132 18.5058 35.7905 18.6544ZM38.7606 22.8161C38.7606 22.8161 38.7606 23.1877 38.4636 23.0391C38.0181 22.7418 37.6468 22.7418 37.2013 23.0391C37.127 23.0391 36.83 23.1877 36.9043 23.0391C37.127 22.3702 36.9043 21.9243 36.1617 21.4041C37.0528 21.4041 37.4983 21.1069 37.7211 20.438C37.9438 20.438 37.9438 20.5866 38.0181 20.6609C38.1666 21.1068 38.3893 21.3298 38.9091 21.3298C38.9834 21.3298 39.1319 21.3298 39.2061 21.4041C39.2061 21.5528 39.1319 21.6271 39.0576 21.7014C38.6121 21.9987 38.6121 22.3702 38.6864 22.8161L38.7606 22.8161ZM39.2804 33.2205C38.7606 33.5921 38.6121 34.1123 38.8349 34.7069C38.6121 34.7069 38.5379 34.7069 38.3893 34.5582C38.0181 34.3353 37.7211 34.261 37.3498 34.5582C37.2755 34.5582 37.127 34.7812 36.9785 34.6325C36.9043 34.5582 36.9785 34.4096 36.9785 34.3353C37.2755 33.7407 36.6815 33.4435 36.3845 32.9976C37.2013 33.0719 37.6468 32.7003 37.7953 32.0314C37.9438 32.0314 38.0181 32.1058 38.0181 32.2544C38.1666 32.7746 38.4636 32.9976 39.0576 32.9976C39.2061 32.9976 39.4289 33.0719 39.2061 33.2205L39.2804 33.2205ZM39.2804 27.4238C38.6864 27.7954 38.6864 28.3156 38.9091 28.9101C38.6864 28.9844 38.6121 28.9101 38.4636 28.8358C38.0923 28.6129 37.7953 28.5385 37.4241 28.8358C37.3498 28.9101 37.2013 29.0588 37.0528 28.9101C36.9785 28.8358 37.0528 28.6872 37.0528 28.6129C37.2013 28.167 37.0528 27.8697 36.6815 27.5724C36.6073 27.5724 36.4588 27.4238 36.533 27.2752C36.533 27.2752 36.6815 27.2008 36.83 27.2008C37.4983 27.2752 37.6468 26.6806 37.8696 26.309C38.0181 26.309 38.0923 26.4577 38.0923 26.532C38.2408 27.0522 38.5379 27.2752 39.1319 27.2752C39.2804 27.2752 39.5031 27.3495 39.2804 27.5724L39.2804 27.4238ZM39.2804 15.756C38.6864 16.1276 38.6864 16.6478 38.9091 17.2424C38.6864 17.2424 38.6121 17.2424 38.4636 17.1681C38.0923 16.9451 37.7953 16.9451 37.4241 17.1681C37.3498 17.1681 37.2013 17.391 37.0528 17.2424C36.9785 17.1681 37.0528 17.0194 37.0528 16.9451C37.3498 16.2762 36.7558 16.0533 36.4588 15.6074C37.2755 15.6074 37.7211 15.3844 37.8696 14.6413C38.0181 14.6413 38.0923 14.7156 38.0923 14.8642C38.2408 15.3844 38.6121 15.6074 39.1319 15.6074C39.2804 15.6074 39.5031 15.6817 39.2804 15.8303L39.2804 15.756ZM40.5427 18.4314C40.9882 18.4314 41.2852 18.2085 41.3595 17.8369C41.3595 17.7626 41.3595 17.614 41.5822 17.614C41.7308 17.614 41.805 17.7626 41.805 17.8369C41.9535 18.2828 42.2505 18.5058 42.7703 18.5058C42.8446 18.5058 42.9931 18.5058 42.9931 18.5801C42.9931 18.7287 42.9188 18.803 42.8446 18.803C42.4733 19.1003 42.3248 19.3976 42.4733 19.9178C42.5475 20.215 42.4733 20.2894 42.1763 20.1407C41.7308 19.8435 41.3595 19.8435 40.9882 20.1407C40.914 20.215 40.617 20.3637 40.6912 20.0664C40.914 19.3976 40.6169 18.9517 40.0229 18.5801C40.3199 18.5801 40.3942 18.5058 40.5427 18.5058L40.5427 18.4314ZM42.8446 30.3965C42.4733 30.6937 42.2505 31.0653 42.4733 31.5112C42.4733 31.5855 42.4733 31.9571 42.3248 31.8085C41.805 31.4369 41.2852 31.5112 40.7655 31.8828L40.1714 30.1735C40.1714 30.0249 40.3942 30.0992 40.4684 30.0992C40.914 30.0992 41.211 29.9506 41.3595 29.4303C41.3595 29.2817 41.5822 28.9844 41.6565 29.2817C41.8793 29.9506 42.3248 30.0992 43.0673 30.0992C42.9188 30.2478 42.8446 30.3221 42.8446 30.3965ZM43.8098 15.5331C44.2554 15.5331 44.6266 15.3844 44.7751 14.8642C44.7751 14.7899 44.7751 14.6413 44.9979 14.6413C45.1464 14.6413 45.1464 14.7899 45.1464 14.8642C45.2949 15.3844 45.6662 15.5331 46.1117 15.5331C46.186 15.5331 46.3345 15.5331 46.3345 15.6817C46.3345 15.6817 46.3345 15.8303 46.186 15.9047C45.7404 16.2019 45.6662 16.5735 45.8147 17.0937C45.8889 17.391 45.8147 17.4653 45.5177 17.3167C45.1464 17.0194 44.7009 17.0194 44.3296 17.3167C44.2554 17.3167 43.9584 17.5396 44.0326 17.2424C44.2554 16.5735 44.0326 16.1276 43.3643 15.6817C43.5871 15.6817 43.6613 15.6817 43.7356 15.6817L43.8098 15.5331ZM45.8889 28.9101C45.8889 28.9101 45.5919 28.9101 45.5177 28.8358C45.1464 28.5385 44.7751 28.5385 44.4039 28.8358C44.3296 28.8358 43.9584 29.0588 44.1069 28.8358C44.3296 28.167 44.0326 27.7211 43.5128 27.2752C44.2554 27.2752 44.7009 26.9779 44.9236 26.309C45.1464 26.309 45.1464 26.4577 45.2207 26.532C45.3692 26.9779 45.6662 27.2008 46.1117 27.2008C46.186 27.2008 46.4087 27.2008 46.4087 27.3495C46.4087 27.4981 46.3345 27.5724 46.2602 27.6467C45.6662 27.944 45.9632 28.5385 45.9632 28.9844L45.8889 28.9101ZM46.3345 33.2948C45.7404 33.6664 45.8147 34.1866 45.9632 34.8555C45.8147 34.8555 45.7404 34.7812 45.6662 34.7069C45.2207 34.4096 44.8494 34.3353 44.4039 34.7069C44.3296 34.7069 44.1811 34.8555 44.1069 34.7069C44.1069 34.4096 44.3296 34.1123 44.1069 33.815C43.9584 33.5921 43.6613 33.4435 43.5871 33.1462C43.7356 32.9976 43.8841 32.9976 43.9584 32.9976C44.4039 32.9976 44.6266 32.7746 44.7751 32.3287C44.7751 32.2544 44.7751 32.1058 44.9979 32.1058C45.0722 32.1058 45.1464 32.2544 45.1464 32.3287C45.2949 32.8489 45.6662 32.9976 46.1117 32.9976C46.3345 32.9976 46.5572 33.0719 46.2602 33.2948L46.3345 33.2948ZM45.8889 23.1134C45.8889 23.1134 45.5919 23.1134 45.4434 23.0391C45.0722 22.7418 44.7751 22.8161 44.4039 23.0391C44.3296 23.0391 44.1811 23.262 44.0326 23.1134C43.9584 23.0391 44.0326 22.8905 44.0326 22.7418C44.3296 22.1473 43.8098 21.85 43.3643 21.4041C44.1811 21.4041 44.7009 21.1812 44.9236 20.3637C45.2207 21.0325 45.5919 21.4784 46.4087 21.4041C45.7404 21.85 45.6662 22.3702 45.8889 23.0391L45.8889 23.1134Z" fill="#26235C"/>
<path d="M58.1411 56.5559C74.9224 56.5559 91.7779 56.5559 108.559 56.5559C109.45 56.5559 109.302 56.4816 109.302 57.2991C109.302 58.2652 109.302 59.2313 109.302 60.2718C109.302 60.792 109.079 60.792 108.633 60.792C102.099 60.792 95.5648 60.792 89.0305 60.792C62.0023 60.792 34.8998 60.792 7.87151 60.792C7.723 60.792 7.50024 60.792 7.35174 60.792C7.05472 60.792 6.98047 60.7177 6.98047 60.4204C6.98047 59.2313 6.98047 58.1166 6.98047 56.9275C6.98047 56.5559 7.20323 56.5559 7.50024 56.5559C9.35658 56.5559 11.2129 56.5559 13.0692 56.5559C28.0684 56.5559 43.1419 56.5559 58.1411 56.5559Z" fill="#C82127"/>
<path d="M58.0668 52.3203C41.3598 52.3203 24.6528 52.3203 7.94576 52.3203C7.30223 52.3203 6.98047 51.9983 6.98047 51.3542C6.98047 50.5367 6.98047 49.6449 6.98047 48.8274C6.98047 48.4558 7.12898 48.3815 7.42599 48.3815C7.79726 48.3815 8.16852 48.3815 8.46554 48.3815C41.7311 48.3815 75.0709 48.3815 108.336 48.3815C108.98 48.3815 109.302 48.7035 109.302 49.3476C109.302 50.1651 109.302 50.9826 109.302 51.8001C109.302 52.1717 109.153 52.246 108.856 52.246C108.411 52.246 107.965 52.246 107.52 52.246C91.0353 52.246 74.5511 52.246 58.1411 52.246L58.0668 52.3203Z" fill="#C82127"/>
<path d="M58.1406 44.1445C41.3593 44.1445 24.5038 44.1445 7.72252 44.1445C6.83148 44.1445 6.97998 44.1445 6.97998 43.4014C6.97998 42.5096 6.97998 41.5434 6.97998 40.6516C6.97998 40.3544 7.05424 40.2057 7.35125 40.2057C7.57401 40.2057 7.79677 40.2057 8.01953 40.2057C41.5078 40.2057 74.9961 40.2057 108.484 40.2057C108.633 40.2057 108.707 40.2057 108.856 40.2057C109.227 40.2057 109.301 40.3544 109.301 40.6516C109.301 41.6921 109.301 42.6582 109.301 43.6986C109.301 43.9959 109.227 44.1445 108.856 44.1445C108.41 44.1445 107.965 44.1445 107.519 44.1445C91.0349 44.1445 74.5506 44.1445 58.0663 44.1445L58.1406 44.1445Z" fill="#C82127"/>
<path d="M134.325 45.26C134.325 47.1179 134.325 48.9015 134.325 50.7594C134.325 53.3605 133.434 55.59 131.28 57.225C129.944 58.2654 128.384 58.637 126.825 58.7857C124.969 58.9343 123.038 58.86 121.256 58.4884C118.137 57.8195 116.43 55.7387 115.761 52.6917C115.613 51.9485 115.539 51.2053 115.539 50.4622C115.539 46.7463 115.539 43.1048 115.539 39.3889C115.539 38.943 115.687 38.7944 116.133 38.7944C117.766 38.7944 119.474 38.7944 121.108 38.7944C121.479 38.7944 121.627 38.943 121.627 39.3146C121.627 43.1791 121.627 46.9693 121.627 50.8337C121.627 52.0971 121.999 53.2119 123.112 53.8064C124.375 54.4753 125.711 54.4753 126.899 53.7321C127.865 53.1376 128.236 52.1714 128.236 51.131C128.236 50.0163 128.236 48.9758 128.236 47.8611C128.236 45.037 128.236 42.213 128.236 39.3146C128.236 38.8687 128.384 38.7201 128.83 38.7201C130.464 38.7201 132.097 38.7201 133.731 38.7201C134.176 38.7201 134.325 38.7944 134.325 39.3146C134.325 41.3212 134.325 43.2534 134.325 45.26Z" fill="black"/>
<path d="M140.116 51.7994C140.859 51.7994 141.602 51.7994 142.418 51.6508C142.79 51.6508 142.938 51.7251 143.012 52.0967C143.235 53.583 144.052 54.5492 145.537 54.9207C146.354 55.0694 147.171 55.0694 147.913 54.6978C148.581 54.3262 149.101 53.806 149.101 52.9885C149.101 52.171 148.656 51.6508 147.987 51.2792C147.245 50.8333 146.354 50.6847 145.537 50.4617C143.978 50.0901 142.418 49.6442 140.933 48.9011C139.003 47.8606 137.74 46.3 137.889 43.9961C138.037 41.6923 139.3 39.983 141.379 39.2399C144.572 38.0508 147.913 38.0508 151.106 39.3885C153.111 40.206 153.928 41.9896 154.299 43.9961C154.299 44.2191 154.299 44.2934 154.002 44.2934C152.294 44.3677 150.586 44.5164 148.878 44.5907C148.656 44.5907 148.581 44.5164 148.507 44.2934C148.062 42.3612 146.577 41.9153 144.943 42.1382C144.572 42.1382 144.275 42.2869 144.052 42.5098C143.235 43.1787 143.384 44.2191 144.275 44.665C144.794 44.8879 145.314 45.0366 145.834 45.1852C147.616 45.5568 149.472 46.0027 151.18 46.7459C153.928 47.8606 155.264 50.0158 154.893 52.8399C154.596 55.441 153.111 57.1502 150.735 58.1164C148.73 58.9339 146.651 58.8595 144.572 58.7852C143.903 58.7852 143.309 58.6366 142.641 58.488C139.225 57.8934 137.74 55.3666 137.221 52.8399C137.072 51.9481 137.072 51.9481 137.963 51.8737C138.706 51.8737 139.374 51.7994 140.116 51.7251L140.116 51.7994Z" fill="black"/>
<path d="M166.18 55.2183C165.214 55.2183 164.249 55.2183 163.21 55.2183C162.764 55.2183 162.616 55.367 162.541 55.7386C162.318 56.556 162.096 57.2992 161.873 58.1167C161.873 58.3396 161.65 58.4883 161.427 58.4883C159.645 58.4883 157.789 58.4883 156.007 58.4883C155.561 58.4883 155.636 58.3396 155.71 58.0424C156.824 55.0697 157.938 52.1713 159.051 49.1987C160.314 45.9287 161.502 42.5845 162.764 39.3145C162.913 38.9429 163.135 38.7943 163.507 38.7943C165.363 38.7943 167.293 38.7943 169.15 38.7943C169.447 38.7943 169.595 38.9429 169.744 39.2402C172.046 45.4828 174.422 51.7254 176.798 57.9681C176.946 58.3396 176.946 58.4883 176.427 58.4883C174.645 58.4883 172.862 58.4883 171.08 58.4883C170.709 58.4883 170.486 58.3396 170.412 57.9681C170.189 57.1506 169.892 56.4074 169.744 55.6642C169.67 55.2927 169.447 55.2183 169.15 55.2183C168.185 55.2183 167.145 55.2183 166.18 55.2183ZM166.254 44.0708C166.254 44.0708 166.18 44.0708 166.105 44.0708C165.437 46.226 164.769 48.4555 164.101 50.6107C163.952 50.9823 164.249 50.9823 164.472 50.9823C165.586 50.9823 166.699 50.9823 167.813 50.9823C168.259 50.9823 168.407 50.908 168.259 50.4621C167.665 48.6784 167.145 46.8205 166.551 45.0369C166.477 44.7396 166.328 44.4424 166.254 44.0708Z" fill="black"/>
<path d="M125.34 15.5329C125.563 14.7154 125.86 13.9722 126.083 13.1547C126.454 11.8914 126.825 10.7023 127.197 9.4389C127.271 9.14163 127.419 8.993 127.791 8.993C129.201 8.993 130.687 8.993 132.097 8.993C132.394 8.993 132.543 9.06731 132.543 9.4389C132.543 12.7832 132.543 16.2017 132.543 19.546C132.543 19.8433 132.469 19.9919 132.097 19.9176C131.355 19.9176 130.538 19.9176 129.795 19.9176C129.424 19.9176 129.276 19.7689 129.276 19.3974C129.276 17.0935 129.276 14.7897 129.276 12.4859C129.276 12.3373 129.276 12.1886 129.276 11.9657C129.053 11.9657 129.053 12.1886 129.053 12.3373C128.31 14.7154 127.642 17.0192 126.974 19.3974C126.9 19.7689 126.751 19.8433 126.38 19.8433C125.712 19.8433 125.043 19.8433 124.375 19.8433C124.004 19.8433 123.855 19.7689 123.781 19.3974C123.038 16.8706 122.296 14.4181 121.553 11.8914C121.405 12.04 121.405 12.2629 121.405 12.4116C121.405 14.7154 121.405 17.0192 121.405 19.3231C121.405 19.769 121.256 19.9176 120.811 19.9176C120.068 19.9176 119.326 19.9176 118.583 19.9176C118.286 19.9176 118.138 19.9176 118.138 19.546C118.138 16.1274 118.138 12.7832 118.138 9.36458C118.138 9.06731 118.212 8.993 118.509 8.993C119.994 8.993 121.479 8.993 122.964 8.993C123.261 8.993 123.335 9.14163 123.41 9.4389C123.929 11.2968 124.523 13.1547 125.043 14.9383C125.043 15.087 125.043 15.3099 125.34 15.4586L125.34 15.5329Z" fill="black"/>
<path d="M148.507 14.4928C148.507 12.8579 148.507 11.1486 148.507 9.5136C148.507 9.29065 148.507 8.99338 148.804 9.0677C151.032 9.0677 153.334 8.91906 155.561 9.14201C158.383 9.36497 160.017 11.1486 160.165 13.9726C160.165 15.459 160.165 16.871 159.126 18.06C158.457 18.8775 157.64 19.3978 156.675 19.6207C155.858 19.8437 155.116 19.918 154.299 19.918C152.517 19.918 150.735 19.918 149.027 19.918C148.582 19.918 148.507 19.7693 148.507 19.3977C148.507 17.7628 148.507 16.1278 148.507 14.4185L148.507 14.4928ZM152.443 14.4928C152.443 14.9387 152.443 15.3846 152.443 15.8305C152.443 16.2764 152.443 16.7223 152.443 17.1682C152.443 17.4655 152.517 17.5398 152.814 17.5398C153.408 17.5398 153.928 17.5398 154.522 17.4655C155.413 17.3912 156.007 16.871 156.155 15.9049C156.304 15.0131 156.304 14.1956 156.155 13.3038C156.007 12.412 155.487 11.8174 154.522 11.6688C154.002 11.5202 153.408 11.5945 152.888 11.5202C152.517 11.5202 152.443 11.5945 152.443 11.9661C152.443 12.7835 152.443 13.6753 152.443 14.4928Z" fill="black"/>
<path d="M162.096 14.4925C162.096 12.8576 162.096 11.1483 162.096 9.5133C162.096 9.14172 162.17 9.0674 162.541 9.0674C165.734 9.0674 168.927 9.0674 172.12 9.0674C172.491 9.0674 172.64 9.21603 172.565 9.58762C172.565 10.0335 172.565 10.4794 172.565 10.9253C172.565 11.2969 172.417 11.3712 172.046 11.3712C170.189 11.3712 168.333 11.3712 166.551 11.3712C166.105 11.3712 165.957 11.5199 165.957 11.9658C165.957 13.1548 165.957 13.1548 167.145 13.1548C168.63 13.1548 170.115 13.1548 171.6 13.1548C172.046 13.1548 172.12 13.3035 172.12 13.675C172.12 14.121 172.12 14.4925 172.12 14.9384C172.12 15.31 172.046 15.3843 171.674 15.3843C170.041 15.3843 168.333 15.3843 166.699 15.3843C166.18 15.3843 165.957 15.4587 166.031 16.0532C166.031 16.5734 165.808 17.1679 166.18 17.5395C166.477 17.8368 167.145 17.6138 167.59 17.6138C169.15 17.6138 170.709 17.6138 172.268 17.6138C172.64 17.6138 172.862 17.6882 172.788 18.1341C172.788 18.6543 172.788 19.1002 172.788 19.6204C172.788 19.992 172.714 20.1406 172.343 20.1406C171.155 20.1406 169.967 20.1406 168.779 20.1406C166.699 20.1406 164.62 20.1406 162.541 20.1406C162.17 20.1406 162.021 20.0663 162.021 19.6947C162.021 18.0598 162.021 16.3505 162.021 14.7155L162.096 14.4925Z" fill="black"/>
<path d="M140.562 9.0675C141.156 9.0675 141.676 9.0675 142.27 9.0675C142.567 9.0675 142.715 9.14182 142.864 9.43908C144.349 12.8577 145.834 16.2019 147.319 19.6205C147.467 19.9921 147.319 20.0664 147.022 20.0664C145.982 20.0664 144.869 20.0664 143.829 20.0664C143.532 20.0664 143.384 19.9178 143.235 19.6205C143.087 19.1746 143.087 18.5058 142.715 18.2828C142.344 18.0599 141.75 18.2085 141.304 18.2085C140.413 18.2085 139.597 18.2085 138.706 18.2085C138.409 18.2085 138.26 18.2828 138.186 18.5801C138.186 18.7287 138.112 18.803 138.037 18.9517C137.79 19.6453 137.295 19.9921 136.552 19.9921C135.735 19.9921 134.919 19.9921 134.102 19.9921C133.805 19.9921 133.656 19.9921 133.805 19.6205C135.29 16.2019 136.775 12.7833 138.26 9.29045C138.334 9.0675 138.483 8.99318 138.706 8.99318C139.3 8.99318 139.894 8.99318 140.562 8.99318L140.562 9.0675ZM140.562 12.0402L140.413 12.0402C140.042 13.2292 139.597 14.344 139.225 15.5331C139.225 15.756 139.225 15.8303 139.448 15.8303C140.191 15.8303 140.859 15.8303 141.601 15.8303C141.824 15.8303 141.898 15.756 141.824 15.5331C141.379 14.344 141.007 13.2292 140.562 12.0402Z" fill="black"/>
<path d="M118.657 33.3689C118.88 32.4028 119.029 31.5853 119.252 30.7679C119.326 30.3963 119.252 30.099 118.955 29.876C118.286 29.4301 117.692 28.9099 117.024 28.3154C117.766 28.3154 118.36 28.0924 118.955 28.1668C119.846 28.1668 120.291 27.8695 120.588 27.052C120.737 26.4575 121.034 25.8629 121.331 25.1941C121.702 26.0859 121.999 26.7547 122.296 27.5722C122.444 28.0181 122.741 28.1668 123.113 28.1668C123.781 28.1668 124.375 28.2411 125.043 28.3154C125.192 28.3154 125.34 28.3154 125.563 28.464C124.969 28.9842 124.375 29.5045 123.707 29.9504C123.335 30.1733 123.261 30.4706 123.41 30.9165C123.632 31.734 123.781 32.5515 124.004 33.5176C123.187 32.9974 122.444 32.5515 121.776 32.1056C121.479 31.8826 121.256 31.8826 120.885 32.1056C120.217 32.5515 119.474 32.9974 118.657 33.5176L118.657 33.3689Z" fill="black"/>
<path d="M171.823 33.2948C171.08 32.8489 170.412 32.4773 169.818 32.0314C169.372 31.6599 169.001 31.6599 168.556 32.0314C167.962 32.4773 167.293 32.8489 166.551 33.2948C166.774 32.3287 166.922 31.4369 167.145 30.6194C167.219 30.2478 167.145 30.0249 166.848 29.8762C166.254 29.4303 165.586 28.9101 164.843 28.3156C165.511 28.3156 166.105 28.0926 166.625 28.167C167.665 28.2413 168.184 27.8697 168.407 26.9036C168.556 26.3833 168.853 25.8631 169.075 25.3429C169.372 25.5659 169.372 25.8631 169.521 26.0861C169.744 26.532 169.892 26.9036 170.041 27.3495C170.189 28.0183 170.635 28.167 171.229 28.167C171.897 28.167 172.565 28.2413 173.382 28.3156C173.159 28.7615 172.788 28.9101 172.491 29.1331C172.046 29.5047 171.377 29.7276 171.229 30.3221C171.08 30.8424 171.377 31.4369 171.526 31.9571C171.6 32.403 171.749 32.7746 171.823 33.3691L171.823 33.2948Z" fill="black"/>
<path d="M135.067 28.5383C135.067 29.2814 135.067 30.0246 135.067 30.8421C135.067 31.2137 135.067 31.3623 134.622 31.3623C133.359 31.3623 133.359 31.3623 133.359 30.0989C133.359 28.8355 133.359 27.4978 133.359 26.2344C133.359 25.9372 133.434 25.7885 133.731 25.7885C134.622 25.6399 135.29 25.9372 135.735 26.7547C136.107 27.4235 136.627 28.018 137.221 28.6126C137.221 28.018 137.221 27.3492 137.221 26.7547C137.221 25.7885 137.221 25.7885 138.186 25.7885C139.003 25.7885 138.928 25.6399 138.928 26.5317C138.928 27.9437 138.928 29.3557 138.928 30.7678C138.928 31.1394 138.854 31.2137 138.483 31.288C137.592 31.3623 136.924 31.1394 136.478 30.3219C136.107 29.653 135.587 29.0585 135.067 28.3896L134.919 28.3896L135.067 28.5383Z" fill="black"/>
<path d="M154.373 28.6127C154.373 29.3558 154.373 30.1733 154.373 30.9165C154.373 31.2138 154.299 31.2881 154.002 31.2881C153.631 31.2881 153.259 31.2881 152.962 31.2881C152.665 31.2881 152.591 31.1395 152.591 30.8422C152.591 30.3963 152.591 29.8761 152.591 29.4302C152.591 29.1329 152.591 29.0586 152.22 29.0586C151.774 29.0586 151.329 29.0586 150.883 29.0586C150.586 29.0586 150.512 29.2072 150.512 29.4302C150.512 29.8761 150.512 30.3963 150.512 30.8422C150.512 31.2138 150.364 31.2881 150.067 31.2881C148.73 31.2881 148.73 31.2881 148.73 29.9504C148.73 28.687 148.73 27.4979 148.73 26.2345C148.73 25.8629 148.804 25.7886 149.175 25.7886C150.586 25.7886 150.586 25.7886 150.512 27.1263C150.512 27.5722 150.586 27.7952 151.106 27.7209C151.403 27.7209 151.774 27.7209 152.071 27.7209C152.517 27.7209 152.591 27.5722 152.591 27.2007C152.591 26.8291 152.591 26.4575 152.591 26.1602C152.591 25.9373 152.665 25.7886 152.962 25.7886C154.447 25.7143 154.447 25.7143 154.447 27.1263C154.447 27.5722 154.447 28.0925 154.447 28.5384L154.373 28.6127Z" fill="black"/>
<path d="M155.561 28.5384C155.561 27.7952 155.561 27.052 155.561 26.2345C155.561 25.9373 155.561 25.7886 155.932 25.7886C157.343 25.7886 158.68 25.7886 160.091 25.7886C160.61 25.7886 160.462 26.1602 160.462 26.3832C160.462 26.6804 160.462 26.9777 160.016 26.9034C159.274 26.9034 158.531 26.9034 157.714 26.9034C157.343 26.9034 157.343 27.052 157.269 27.3493C157.269 27.6466 157.343 27.7952 157.714 27.7952C158.383 27.7952 159.051 27.7952 159.719 27.7952C160.165 27.7952 160.239 27.9438 160.239 28.3154C160.239 28.6127 160.239 28.9843 159.794 28.9099C159.125 28.9099 158.457 28.9099 157.789 28.9099C157.269 28.9099 157.343 29.2072 157.343 29.5045C157.343 29.8017 157.343 30.099 157.789 30.0247C158.531 30.0247 159.348 30.0247 160.091 30.0247C160.388 30.0247 160.536 30.099 160.536 30.4706C160.536 30.6192 160.536 30.7679 160.536 30.9165C160.536 31.2138 160.462 31.2881 160.165 31.2881C158.754 31.2881 157.269 31.2881 155.858 31.2881C155.561 31.2881 155.487 31.1395 155.487 30.8422C155.487 30.0247 155.487 29.2815 155.487 28.464L155.561 28.5384Z" fill="black"/>
<path d="M145.24 25.8629C146.057 25.8629 146.799 25.8629 147.616 25.8629C147.913 25.8629 147.988 25.9372 147.988 26.2344C147.988 27.4235 148.136 27.2006 147.096 27.2006C146.131 27.2006 146.131 27.2006 146.131 28.1667C146.131 29.0585 146.131 30.0246 146.131 30.9164C146.131 31.288 145.983 31.3623 145.686 31.3623C144.349 31.3623 144.349 31.3623 144.349 30.0246C144.349 29.2814 144.349 28.6126 144.349 27.8694C144.349 27.4235 144.102 27.2006 143.607 27.2006C143.607 27.2006 143.161 27.2006 142.864 27.2006C142.493 27.2006 142.419 27.0519 142.419 26.7547C142.419 25.7142 142.344 25.8629 143.235 25.8629C143.904 25.8629 144.572 25.8629 145.24 25.8629Z" fill="black"/>
<path d="M130.241 28.5384C130.241 27.7952 130.241 27.052 130.241 26.2345C130.241 25.9373 130.241 25.7886 130.686 25.7886C132.097 25.7886 132.097 25.7886 132.097 27.2007C132.097 28.3897 132.097 29.5788 132.097 30.7679C132.097 31.1395 132.097 31.2881 131.652 31.2881C130.241 31.2881 130.241 31.2881 130.315 29.9504C130.315 29.5045 130.315 28.9843 130.315 28.5384L130.241 28.5384Z" fill="black"/>
<path d="M109.376 7.80388C109.376 7.30843 109.128 7.06071 108.633 7.06071L58.0665 7.06072L47.4482 7.06072L47.4482 11.3711C47.4482 11.3711 47.671 11.2225 48.1165 11.2225L107.594 11.2225C108.039 11.2225 108.485 11.2225 108.93 11.2225C109.301 11.2225 109.376 11.1481 109.376 10.7766C109.376 9.81044 109.376 8.84432 109.376 7.8782L109.376 7.80388Z" fill="#C82127"/>
<path d="M109.301 32.4026C109.301 31.9567 109.079 31.7338 108.633 31.7338L71.6549 31.7338C63.784 31.7338 55.9131 31.7338 48.0423 31.7338C47.671 31.7338 47.5225 31.7338 47.4482 31.4365L47.4482 35.8955L88.2134 35.8955C95.0447 35.8955 101.876 35.8955 108.707 35.8955C109.227 35.8955 109.376 35.7469 109.301 35.301C109.301 34.3349 109.301 33.3687 109.301 32.3283L109.301 32.4026Z" fill="#C82127"/>
<path d="M109.301 24.4509C109.301 23.4847 109.524 23.5591 108.41 23.5591C100.836 23.5591 93.2626 23.5591 85.6887 23.5591C76.3328 23.5591 66.9769 23.5591 57.6952 23.5591L47.968 23.5591C47.968 23.5591 47.5967 23.5591 47.5225 23.4104L47.5225 27.6465C47.5225 27.6465 47.7452 27.4979 48.1907 27.4979L97.9405 27.4978C101.579 27.4978 105.217 27.4978 108.856 27.4978C109.301 27.4978 109.45 27.3492 109.45 26.9033C109.45 26.0858 109.45 25.194 109.45 24.3765L109.301 24.4509Z" fill="#C82127"/>
<path d="M109.301 16.1274C109.301 15.632 109.054 15.3842 108.559 15.3842L48.1165 15.3842C47.671 15.3842 47.5225 15.3842 47.4482 15.2356L47.4482 19.4717C47.4482 19.4717 47.5968 19.323 47.8195 19.323C47.968 19.323 48.1165 19.323 48.265 19.323L107.594 19.323C108.039 19.323 108.41 19.323 108.856 19.323C109.227 19.323 109.301 19.2487 109.301 18.8771C109.301 17.9853 109.301 17.0192 109.301 16.1274Z" fill="#C82127"/>
</svg>
