<svg width="121" height="137" viewBox="0 0 121 137" fill="none" xmlns="http://www.w3.org/2000/svg">
<circle cx="60.5" cy="69" r="60" fill="#DDE7FF"/>
<path d="M29.33 136.887C24.4539 136.457 18.7507 134.13 14.7562 131.334C13.2348 130.269 6.65007 125.586 9.77861 123.549C11.7993 122.233 12.5951 124.348 13.6015 125.272C22.4332 133.355 35.5013 135.713 45.9246 129.087C48.0623 127.732 49.7007 125.037 47.0012 123.299C44.5046 121.693 42.0939 124.325 39.7143 125.257C24.3525 131.28 8.47569 117.338 12.6263 101.275C13.2582 98.8388 14.3661 96.356 17.3152 97.7501C19.133 98.6038 20.709 102.402 22.597 99.5202C22.9793 95.5336 24.2276 91.2024 24.5007 87.255C24.7738 83.3076 22.9871 81.1929 18.8444 81.5767C16.4258 81.796 9.06083 83.198 6.8451 83.9655C3.13923 85.25 8.35086 88.5082 9.20906 89.8396C10.707 92.1658 8.72535 93.8262 7.89055 95.98C5.73724 101.58 5.19111 107.117 6.65006 112.991C7.06356 114.66 9.09983 118.122 6.94652 119.101C3.81018 120.526 2.56969 113.626 2.23421 111.543C1.49303 106.937 1.78951 102.066 3.09242 97.5856C3.40449 96.5205 5.36275 92.2363 5.34715 91.829C5.33155 91.0928 3.63074 90.1842 3.08461 89.5655C0.143311 86.2995 1.46183 81.4749 5.67483 80.1199C8.61612 79.1801 18.6181 77.2768 21.4736 77.5275C22.1991 77.5901 23.229 78.2559 23.7283 77.9426L31.3195 64.9647C27.9803 58.3543 23.9311 52.026 20.3423 45.5096C19.2656 42.7918 19.7338 41.4839 20.9352 39.0246C23.8297 33.08 28.0661 27.339 31.0776 21.4022C32.6068 19.4285 34.5183 18.8959 36.9212 18.7158C40.7909 18.4182 55.2244 18.1754 58.3685 19.1074C59.8275 19.5382 61.2552 20.8383 62.0432 22.1071L72.7395 40.779L94.8422 40.8965C95.1542 39.2517 95.201 37.4033 95.794 35.8369C97.3466 31.7172 102.699 31.1298 105.382 34.4898C106.49 32.0148 106.155 28.7801 105.437 26.1485C102.964 17.0475 93.5783 12.3169 84.6764 15.0503C80.4946 16.3348 78.2008 20.0003 73.3012 17.2277C69.923 15.3166 68.7138 10.7975 70.7188 7.44532C72.4743 4.50826 78.271 2.01763 81.4854 1.14043C104.743 -5.21928 125.706 16.0529 118.965 39.2987C118.653 40.3717 116.703 44.6402 116.711 45.0553C116.726 45.6976 118.419 46.6844 118.973 47.3188C119.636 48.0786 120.268 49.1437 120.409 50.1541C121.454 57.6729 113.27 57.203 108.183 58.2917C109.471 60.8606 111.218 62.7404 110.774 65.8419C110.571 67.2752 107.466 73.071 106.248 73.5957C105.382 73.9717 104.173 73.5644 103.791 72.7264C102.644 70.1966 107.512 66.7582 106.724 63.8995C106.623 63.5392 104.407 59.6232 104.189 59.49C103.604 59.1297 101.286 59.4587 100.342 59.3412C96.933 58.8948 93.8279 55.4408 93.5158 52.0181C93.313 49.7468 93.9215 47.1544 94.3272 44.9222H72.4821C69.1039 51.6343 65.0157 58.0332 61.3488 64.6122L72.6147 84.4903L73.3949 84.78L94.7017 84.7487C97.6508 84.2788 98.6807 75.7182 102.106 78.342C102.792 78.8668 102.925 79.6813 102.714 80.488C102.519 81.2477 100.202 85.2265 99.6403 85.9627C98.3842 87.6153 96.5508 88.6726 94.4599 88.7823L72.7395 88.9076L61.5049 108.112C60.28 109.866 58.4387 110.556 56.3712 110.712C49.5368 111.221 42.0158 110.36 35.119 110.634C30.5627 109.913 29.1272 103.624 26.5292 100.538C25.0546 104.924 19.6401 106.052 16.6754 102.41C15.3881 105.488 16.0045 109.475 17.2138 112.561C20.3501 120.581 29.2598 124.34 37.3737 121.85C41.3839 120.62 43.6854 117.088 48.4212 119.469C51.9554 121.247 53.3753 125.797 51.4405 129.29C49.1155 133.488 39.4412 136.535 34.9161 136.903C33.387 137.028 30.8436 137.036 29.3222 136.903L29.33 136.887ZM87.3446 4.07749C84.0366 4.37511 77.0617 6.40364 74.7368 8.80028C72.6459 10.962 74.136 14.4238 77.1086 14.1418C78.5051 14.0087 81.9301 11.6747 83.9352 11.0794C97.7132 6.98322 111.312 18.0109 110.001 32.4377C109.744 35.2808 108.714 41.0061 104.735 39.1264C102.909 38.2649 101.536 34.6934 99.5311 37.1684C99.0551 41.2176 97.7444 45.8464 97.526 49.8564C97.3075 53.8665 99.2658 55.6679 103.214 55.2998C107.161 54.9317 111.616 53.2791 115.618 52.7778C118.216 50.6945 113.941 48.7286 112.849 47.029C111.351 44.7107 113.325 43.0346 114.167 40.8886C121.462 22.1071 107.489 2.26826 87.3524 4.06966L87.3446 4.07749ZM36.4609 22.7807C35.5013 22.9217 34.7523 23.1488 34.1672 23.9555C30.4535 29.0699 27.7931 36.3303 24.0326 41.5857C23.6113 42.3298 23.6113 43.1991 24.0326 43.9432L34.924 62.6855H57.838L69.1585 42.5099L59.1097 25.0285C57.9784 23.3446 57.7444 22.8747 55.5754 22.6945C51.2766 22.3264 40.5491 22.1776 36.4609 22.7729V22.7807ZM34.6977 66.8757L26.9427 80.5977C29.7825 84.7096 28.0583 89.3697 27.52 93.9045C29.7279 97.2645 31.4365 101.29 33.6445 104.611C34.2686 105.551 34.8069 106.632 36.1176 106.671C42.5542 106.209 49.7787 107.266 56.1138 106.671C58.4699 106.452 58.6416 105.175 59.7416 103.366C63.0652 97.9224 65.9831 92.1893 69.2365 86.6911L57.8302 66.9462L34.6977 66.8601V66.8757Z" fill="#EF630B"/>
</svg>
