<svg width="121" height="120" viewBox="0 0 121 120" fill="none" xmlns="http://www.w3.org/2000/svg">
<circle cx="60.5" cy="60" r="60" fill="#DDE7FF"/>
<path d="M57.3351 57.62C63.6104 74.3207 48.7259 90.1172 33.4626 94.2905C5.37823 101.965 -6.94057 74.9776 14.057 56.7622C14.853 56.0667 19.289 53.1918 19.3663 52.8672C19.4668 52.4498 19.1036 52.3958 18.8949 52.1948C17.5579 50.9351 15.1699 49.6986 13.6165 48.2689C3.6471 39.1418 1.86961 25.5556 10.7493 14.9216C26.2599 -3.64939 63.9737 -3.72667 79.1828 15.2075C94.106 33.7784 76.7794 54.1578 57.3274 57.62H57.3351ZM42.8988 7.08513C29.5985 7.6802 8.33041 16.3435 11.3985 32.9515C16.0355 58.0219 67.7064 59.8458 77.3203 36.3288C85.3113 16.7918 58.1157 6.40504 42.8988 7.08513ZM14.7758 69.6993C10.8266 81.6162 21.1206 85.8822 31.2292 82.8527C39.1042 80.4879 50.1942 70.9512 46.0828 61.8319C44.3053 57.8905 41.1058 59.498 37.5277 58.8102C37.3808 59.3202 36.8089 62.3497 36.9249 62.5043C37.1954 62.883 40.2712 62.6588 40.6421 64.9773C41.4536 70.0084 34.6296 75.0936 30.4563 76.616C26.1594 78.1849 17.9211 79.0504 20.5333 72.0177L14.7835 69.707L14.7758 69.6993Z" fill="#EF630B"/>
<path d="M80.2877 62.8826C96.3547 61.9707 120.158 74.5059 116.456 93.3009C112.97 111.014 88.9975 112.622 75.2644 106.856C49.058 95.859 49.9699 64.606 80.2877 62.8826ZM78.3325 78.8955L75.8904 73.1534C66.0523 77.489 67.428 87.2961 75.3649 92.9454C82.0807 97.7292 93.5107 99.8467 100.69 95.0707C105.915 91.593 106.564 84.9544 102.321 80.3484L97.6067 83.7952C98.8664 86.2451 100.041 87.9762 97.2976 89.9546C92.2897 93.5637 81.7097 90.8511 77.4669 86.8169C74.5843 84.0734 73.8347 80.2711 78.3402 78.8955H78.3325Z" fill="#EF630B"/>
<path d="M94.6624 38.1438C100.265 37.4715 106.803 39.2799 110.374 43.8395C119.192 55.0918 103.689 62.5882 92.9931 57.1939C83.0237 52.1706 83.0855 39.5272 94.6624 38.1438Z" fill="#EF630B"/>
<path d="M59.947 22.2084C59.7075 21.8684 62.9147 16.8064 63.2315 16.8064C73.5719 23.8313 70.0478 33.5303 59.7384 38.0204C50.905 41.8613 38.0839 41.8227 29.3355 37.7344C19.2347 33.0125 16.5144 23.1358 26.847 16.7832C27.0016 18.0506 29.7606 20.8869 29.7374 21.8297C29.7219 22.3089 27.9367 23.4372 27.4344 24.1173C24.5595 28.0355 29.235 30.98 32.4191 32.3633C39.3745 35.3773 49.1816 35.4082 56.2684 32.8193C61.5236 30.895 66.8947 26.4126 59.9548 22.2239L59.947 22.2084Z" fill="#EF630B"/>
</svg>
