<svg width="134" height="133" viewBox="0 0 134 133" fill="none" xmlns="http://www.w3.org/2000/svg">
<circle cx="67.5" cy="66" r="60" fill="#DDE7FF"/>
<path d="M74.967 59.5483H87.3715C88.4817 59.5483 89.0076 63.0376 88.0977 64.0309L58.4388 104.283C56.1015 105.235 53.6974 104.892 53.856 102.029L59.1817 73.0797H46.7772C45.667 73.0797 45.1328 69.5904 46.051 68.597L75.7099 28.345C78.0472 27.3934 80.4514 27.7356 80.2928 30.5989L74.967 59.5483ZM79.4747 64.8156C77.2542 64.3648 69.8499 65.9509 69.0569 63.5801C67.4792 58.8888 72.8968 49.0637 71.5862 43.7713C66.8364 50.7332 59.6659 58.1375 55.5589 65.3331C55.0831 66.1679 54.4153 66.6938 54.6657 67.8207C56.8862 68.2715 64.2904 66.6854 65.0835 69.0562C66.4441 73.1298 61.494 84.5993 62.1869 89.6246L79.4663 64.8239L79.4747 64.8156Z" fill="#EF630B"/>
<path d="M125.227 8.53474C125.77 9.38619 125.361 11.7068 124.618 12.6084L104.676 32.5507C102.572 33.9698 99.8841 31.8913 100.644 29.2618C101.562 26.0563 118.499 12.6417 121.179 8.37613C121.822 7.30764 124.868 7.95876 125.236 8.54309L125.227 8.53474Z" fill="#EF630B"/>
<path d="M125.228 124.1C125.086 124.317 123.116 124.943 122.673 124.91C120.386 124.743 103.774 106.195 100.636 103.373C99.8594 101.553 101.512 99.6584 103.29 99.5164C105.068 99.3745 121.53 117.748 124.618 120.026C125.361 120.928 125.77 123.249 125.228 124.1Z" fill="#EF630B"/>
<path d="M8.91218 8.53561C9.05409 8.31857 11.0241 7.6925 11.4665 7.7259C13.7538 7.89285 30.3655 26.4412 33.5041 29.2626C33.7045 33.5783 31.2837 33.6284 28.337 31.3746C26.2167 29.7552 10.4231 14.1786 9.52154 12.6092C8.90382 11.5407 8.26942 9.53732 8.91218 8.53561Z" fill="#EF630B"/>
<path d="M8.91218 124.099C8.26942 123.097 8.90382 121.094 9.52154 120.025C10.4231 118.464 26.2167 102.879 28.337 101.26C31.2419 99.0395 34.581 99.5738 33.5041 103.372C32.5943 106.569 15.6403 120 12.9691 124.258C12.3263 125.326 9.27948 124.675 8.91218 124.091V124.099Z" fill="#EF630B"/>
<path d="M3.16912 63.3125H16.7005C18.9961 63.3125 18.9961 69.3228 16.7005 69.3228H2.41782C0.372658 69.3228 -0.503817 63.7883 3.16912 63.3125Z" fill="#EF630B"/>
<path d="M117.439 63.3125H130.971C134.343 63.3125 134.343 69.3228 130.971 69.3228H117.439C115.544 69.3228 114.676 64.2307 117.439 63.3125Z" fill="#EF630B"/>
<path d="M64.4402 1.28946C65.0078 -0.555359 69.6992 -0.00441916 69.6992 1.28946V16.3234C69.6992 18.5105 64.4402 18.5105 64.4402 16.3234C64.4402 13.1931 63.8057 3.35965 64.4402 1.28946Z" fill="#EF630B"/>
<path d="M64.4404 116.31C65.2334 113.514 69.6994 114.658 69.6994 116.31V131.344C69.6994 132.88 64.4404 132.88 64.4404 131.344C64.4404 128.03 63.7726 118.664 64.4404 116.31Z" fill="#EF630B"/>
</svg>
